<svg width="128" height="75" viewBox="0 0 128 75" fill="none" xmlns="http://www.w3.org/2000/svg">
<g clip-path="url(#clip0_242_122)">
<path d="M36.4874 27.2415C36.4874 28.7851 36.6543 30.0366 36.9463 30.9544C37.28 31.8721 37.6972 32.8734 38.2813 33.958C38.4898 34.2918 38.5733 34.6255 38.5733 34.9175C38.5733 35.3347 38.323 35.7519 37.7807 36.169L35.1525 37.9212C34.777 38.1715 34.4015 38.2966 34.0678 38.2966C33.6506 38.2966 33.2334 38.0881 32.8163 37.7126C32.2322 37.0868 31.7316 36.4194 31.3144 35.7519C30.8973 35.0427 30.4801 34.25 30.0212 33.2905C26.7672 37.1285 22.6789 39.0476 17.7563 39.0476C14.252 39.0476 11.4569 38.0463 9.41278 36.0439C7.36862 34.0415 6.32568 31.3715 6.32568 28.0341C6.32568 24.4882 7.57721 21.6097 10.122 19.4403C12.6667 17.271 16.0459 16.1864 20.3428 16.1864C21.7611 16.1864 23.2213 16.3115 24.7648 16.5201C26.3083 16.7287 27.8936 17.0624 29.5623 17.4379V14.3925C29.5623 11.222 28.8948 9.01097 27.6016 7.71773C26.2666 6.42449 24.0139 5.79873 20.8016 5.79873C19.3415 5.79873 17.8397 5.9656 16.2962 6.34105C14.7526 6.71651 13.2508 7.1754 11.7907 7.75945C11.1232 8.05147 10.6226 8.21834 10.3306 8.30178C10.0385 8.38521 9.82995 8.42693 9.66308 8.42693C9.07904 8.42693 8.78701 8.00975 8.78701 7.13369V5.08953C8.78701 4.42205 8.87045 3.92144 9.07904 3.62942C9.28762 3.3374 9.66308 3.04538 10.2471 2.75335C11.7072 2.00244 13.4594 1.37668 15.5035 0.876067C17.5477 0.33374 19.717 0.0834349 22.0114 0.0834349C26.9758 0.0834349 30.6052 1.20981 32.9414 3.46255C35.2359 5.71529 36.404 9.13613 36.404 13.725V27.2415H36.4874ZM19.5501 33.5826C20.9268 33.5826 22.3452 33.3323 23.847 32.8317C25.3488 32.331 26.6838 31.4133 27.8102 30.1617C28.4777 29.3691 28.9783 28.493 29.2286 27.4918C29.4789 26.4906 29.6457 25.2808 29.6457 23.8624V22.1103C28.4359 21.8182 27.1427 21.5679 25.8077 21.4011C24.4728 21.2342 23.1795 21.1508 21.8863 21.1508C19.0912 21.1508 17.0471 21.6931 15.6704 22.8195C14.2937 23.9458 13.6262 25.5311 13.6262 27.617C13.6262 29.5777 14.1268 31.0378 15.1698 32.039C16.171 33.082 17.6311 33.5826 19.5501 33.5826ZM53.0492 38.0881C52.2983 38.0881 51.7977 37.9629 51.464 37.6709C51.1302 37.4206 50.8382 36.8365 50.5879 36.0439L40.7843 3.79629C40.534 2.96194 40.4089 2.41961 40.4089 2.12759C40.4089 1.46011 40.7426 1.08465 41.4101 1.08465H45.4984C46.291 1.08465 46.8333 1.20981 47.1254 1.50183C47.4591 1.75213 47.7094 2.33618 47.9597 3.12881L54.9682 30.7458L61.4762 3.12881C61.6848 2.29446 61.9351 1.75213 62.2688 1.50183C62.6025 1.25152 63.1866 1.08465 63.9375 1.08465H67.2749C68.0675 1.08465 68.6099 1.20981 68.9436 1.50183C69.2773 1.75213 69.5694 2.33618 69.7362 3.12881L76.3276 31.0795L83.5447 3.12881C83.795 2.29446 84.087 1.75213 84.3791 1.50183C84.7128 1.25152 85.2551 1.08465 86.006 1.08465H89.8858C90.5532 1.08465 90.9287 1.41839 90.9287 2.12759C90.9287 2.33618 90.887 2.54477 90.8453 2.79507C90.8035 3.04538 90.7201 3.37911 90.5532 3.83801L80.4993 36.0856C80.249 36.92 79.957 37.4623 79.6233 37.7126C79.2895 37.9629 78.7472 38.1298 78.038 38.1298H74.4503C73.6577 38.1298 73.1153 38.0046 72.7816 37.7126C72.4479 37.4206 72.1558 36.8782 71.989 36.0439L65.5228 9.13613L59.0983 36.0022C58.8897 36.8365 58.6394 37.3789 58.3056 37.6709C57.9719 37.9629 57.3879 38.0881 56.6369 38.0881H53.0492ZM106.656 39.2144C104.487 39.2144 102.318 38.9641 100.232 38.4635C98.1458 37.9629 96.5188 37.4206 95.4342 36.7948C94.7667 36.4194 94.3078 36.0022 94.1409 35.6267C93.9741 35.2513 93.8906 34.8341 93.8906 34.4586V32.331C93.8906 31.455 94.2244 31.0378 94.8501 31.0378C95.1004 31.0378 95.3508 31.0795 95.6011 31.163C95.8514 31.2464 96.2268 31.4133 96.644 31.5801C98.0624 32.2059 99.6059 32.7065 101.233 33.0402C102.902 33.374 104.529 33.5408 106.197 33.5408C108.825 33.5408 110.87 33.082 112.288 32.1642C113.706 31.2464 114.457 29.9114 114.457 28.201C114.457 27.0329 114.082 26.0734 113.331 25.2808C112.58 24.4882 111.162 23.779 109.118 23.1115L103.068 21.2342C100.023 20.2747 97.7704 18.8563 96.3937 16.979C95.017 15.1434 94.3078 13.0993 94.3078 10.93C94.3078 9.17784 94.6833 7.6343 95.4342 6.29934C96.1851 4.96438 97.1863 3.79629 98.4378 2.87851C99.6894 1.919 101.108 1.20981 102.776 0.709197C104.445 0.208587 106.197 0 108.033 0C108.951 0 109.91 0.0417175 110.828 0.16687C111.787 0.292022 112.663 0.458892 113.54 0.625762C114.374 0.834349 115.167 1.04294 115.917 1.29324C116.668 1.54355 117.252 1.79385 117.67 2.04416C118.254 2.3779 118.671 2.71164 118.921 3.08709C119.171 3.42083 119.297 3.87972 119.297 4.46377V6.42449C119.297 7.30056 118.963 7.75945 118.337 7.75945C118.003 7.75945 117.461 7.59258 116.752 7.25884C114.374 6.17419 111.704 5.63186 108.742 5.63186C106.364 5.63186 104.487 6.00732 103.194 6.79995C101.9 7.59258 101.233 8.80239 101.233 10.5128C101.233 11.6809 101.65 12.6821 102.484 13.4747C103.319 14.2674 104.862 15.06 107.073 15.7692L112.997 17.6465C116.001 18.606 118.17 19.941 119.463 21.6514C120.757 23.3618 121.382 25.3225 121.382 27.4918C121.382 29.2857 121.007 30.9126 120.298 32.331C119.547 33.7494 118.546 35.001 117.252 36.0022C115.959 37.0451 114.416 37.796 112.622 38.3384C110.744 38.9224 108.784 39.2144 106.656 39.2144Z" fill="#252F3E"/>
<path fill-rule="evenodd" clip-rule="evenodd" d="M114.541 59.489C100.816 69.6263 80.8746 75.0079 63.7287 75.0079C39.6995 75.0079 18.0481 66.122 1.69484 51.3541C0.401603 50.186 1.56969 48.6007 3.11324 49.5185C20.8014 59.781 42.6197 65.9969 65.1888 65.9969C80.4157 65.9969 97.1444 62.8264 112.538 56.3184C114.833 55.2755 116.793 57.8203 114.541 59.489Z" fill="#FF9900"/>
<path fill-rule="evenodd" clip-rule="evenodd" d="M120.256 52.9811C118.504 50.7284 108.658 51.8964 104.194 52.4388C102.859 52.6056 102.651 51.4376 103.861 50.5615C111.704 45.0548 124.594 46.64 126.096 48.4756C127.598 50.3529 125.679 63.2436 118.337 69.4178C117.21 70.3773 116.126 69.8767 116.626 68.6252C118.295 64.4951 122.008 55.1921 120.256 52.9811Z" fill="#FF9900"/>
</g>
<defs>
<clipPath id="clip0_242_122">
<rect width="128" height="75.008" fill="white"/>
</clipPath>
</defs>
</svg>
