<svg width="24" height="20" viewBox="0 0 24 20" fill="none" xmlns="http://www.w3.org/2000/svg">
<path d="M11.1797 0.840626C11.1047 0.85 10.8515 0.882814 10.6172 0.910938C8.38591 1.17813 6.16404 2.26563 4.49529 3.91094C3.26248 5.125 2.23591 6.77969 1.68748 8.42031C1.62654 8.60781 1.55154 8.75313 1.50466 8.76719C0.768726 9.00156 0.206226 9.60625 0.0515381 10.3188C-0.0140869 10.6375 -0.0140869 11.2375 0.0515381 11.5563C0.201538 12.2547 0.754663 12.8641 1.43435 13.0797L1.68748 13.1594V13.7359V14.3125H2.60154C3.5156 14.3125 3.52029 14.3125 3.63279 14.4297C3.78748 14.5797 3.78748 14.7953 3.63279 14.9453C3.52029 15.0625 3.5156 15.0625 2.60154 15.0625H1.68748V15.4375V15.8125H2.32029C2.93435 15.8125 2.96248 15.8172 3.07029 15.9297C3.14529 16 3.18748 16.0984 3.18748 16.1875C3.18748 16.2766 3.14529 16.375 3.07029 16.4453C2.96248 16.5578 2.93435 16.5625 2.32029 16.5625H1.68748V16.7828C1.69216 17.8516 2.50779 18.8641 3.56716 19.1172C3.82966 19.1781 4.91248 19.1875 12 19.1875C20.9625 19.1875 20.4328 19.2016 21.0187 18.8922C21.3843 18.7047 21.8297 18.2594 22.0172 17.8938C22.1906 17.5703 22.3125 17.1109 22.3125 16.7828V16.5625H21.6797C21.0656 16.5625 21.0375 16.5578 20.9297 16.4453C20.775 16.2953 20.775 16.0797 20.9297 15.9297C21.0375 15.8172 21.0656 15.8125 21.6797 15.8125H22.3125V15.4375V15.0625H21.3984C20.4844 15.0625 20.4797 15.0625 20.3672 14.9453C20.2922 14.875 20.25 14.7766 20.25 14.6875C20.25 14.5984 20.2922 14.5 20.3672 14.4297C20.4797 14.3125 20.4844 14.3125 21.3984 14.3125H22.3125V13.7359V13.1594L22.5656 13.0797C23.1422 12.8969 23.639 12.4188 23.864 11.8328C23.9906 11.5 24.0375 10.7781 23.9531 10.3656C23.8172 9.67188 23.3625 9.11875 22.7015 8.84688L22.439 8.74375L22.289 8.32656C22.0922 7.77813 21.675 6.97656 21.3375 6.50781L21.0656 6.13281L20.8125 6.1375C20.6719 6.1375 20.3437 6.16563 20.0859 6.20313C18.8718 6.35781 17.8687 5.84688 17.3906 4.82969C17.2875 4.61406 17.175 4.4125 17.1422 4.37969C17.1047 4.35156 16.9734 4.30938 16.8422 4.28594C16.2843 4.17813 15.8156 3.92969 15.4218 3.52656C14.939 3.02969 14.7187 2.46719 14.7187 1.71719C14.7187 1.13125 14.7093 1.12656 13.664 0.948439C13.1297 0.859377 11.55 0.789064 11.1797 0.840626ZM8.69529 3.74219C8.77029 3.8125 8.81248 3.91094 8.81248 4C8.81248 4.08906 8.77029 4.1875 8.69529 4.25781C8.59216 4.36563 8.54529 4.375 8.15623 4.375C7.76716 4.375 7.72029 4.36563 7.61716 4.25781C7.54216 4.1875 7.49998 4.08906 7.49998 4C7.49998 3.91094 7.54216 3.8125 7.61716 3.74219C7.72029 3.63438 7.76716 3.625 8.15623 3.625C8.54529 3.625 8.59216 3.63438 8.69529 3.74219ZM11.5078 3.74219C11.5828 3.8125 11.625 3.91094 11.625 4C11.625 4.08906 11.5828 4.1875 11.5078 4.25781C11.4047 4.36563 11.3578 4.375 10.9687 4.375C10.5797 4.375 10.5328 4.36563 10.4297 4.25781C10.3547 4.1875 10.3125 4.08906 10.3125 4C10.3125 3.91094 10.3547 3.8125 10.4297 3.74219C10.5328 3.63438 10.5797 3.625 10.9687 3.625C11.3578 3.625 11.4047 3.63438 11.5078 3.74219ZM7.1531 5.23281C7.24685 5.3125 7.27966 5.3875 7.27966 5.5C7.27966 5.6125 7.24685 5.6875 7.1531 5.76719C7.0406 5.86094 6.97966 5.875 6.6281 5.875C6.26716 5.875 6.22029 5.86563 6.11716 5.75781C6.04216 5.6875 5.99998 5.58906 5.99998 5.5C5.99998 5.41094 6.04216 5.3125 6.11716 5.24219C6.22029 5.13438 6.26716 5.125 6.6281 5.125C6.97966 5.125 7.0406 5.13906 7.1531 5.23281ZM9.8156 5.17656C9.97966 5.25156 10.0594 5.4625 9.98904 5.63594C9.90935 5.81875 9.75935 5.875 9.33279 5.875C9.03279 5.875 8.9531 5.85625 8.86872 5.78125C8.68122 5.60313 8.69529 5.34531 8.90154 5.18594C8.99529 5.11094 9.66091 5.10625 9.8156 5.17656ZM12.6328 5.24219C12.7078 5.3125 12.75 5.41094 12.75 5.5C12.75 5.58906 12.7078 5.6875 12.6328 5.75781C12.5297 5.86563 12.4828 5.875 12.1219 5.875C11.7703 5.875 11.7093 5.86094 11.5968 5.76719C11.5031 5.6875 11.4703 5.6125 11.4703 5.5C11.4703 5.3875 11.5031 5.3125 11.5968 5.23281C11.7093 5.13906 11.7703 5.125 12.1219 5.125C12.4828 5.125 12.5297 5.13438 12.6328 5.24219ZM15.4265 5.26094C15.5015 5.33594 15.5625 5.44375 15.5625 5.5C15.5625 5.55625 15.5015 5.66406 15.4265 5.73906C15.2953 5.86563 15.2672 5.875 14.9062 5.875C14.4703 5.875 14.3812 5.84219 14.2969 5.64063C14.25 5.52813 14.25 5.47188 14.2969 5.35938C14.3812 5.15781 14.4562 5.12969 14.8968 5.125C15.2672 5.125 15.2953 5.13438 15.4265 5.26094ZM6.01873 6.91094C6.11248 6.98594 6.1406 7.04688 6.1406 7.1875C6.1406 7.47344 5.9906 7.5625 5.49841 7.5625C5.14216 7.5625 5.09529 7.55313 4.99216 7.44531C4.91716 7.375 4.87498 7.27656 4.87498 7.1875C4.87498 7.09844 4.91716 7 4.99216 6.92969C5.09529 6.82188 5.14216 6.8125 5.49841 6.8125C5.82654 6.8125 5.9156 6.82656 6.01873 6.91094ZM8.74216 6.92969C8.81716 7 8.85935 7.09844 8.85935 7.1875C8.85935 7.27656 8.81716 7.375 8.74216 7.44531C8.63904 7.55313 8.59216 7.5625 8.23591 7.5625C7.74373 7.5625 7.59373 7.47344 7.59373 7.1875C7.59373 6.90156 7.74373 6.8125 8.23591 6.8125C8.59216 6.8125 8.63904 6.82188 8.74216 6.92969ZM11.4093 6.91094C11.5031 6.98594 11.5312 7.04688 11.5312 7.1875C11.5312 7.47344 11.3812 7.5625 10.889 7.5625C10.5328 7.5625 10.4859 7.55313 10.3828 7.44531C10.3078 7.375 10.2656 7.27656 10.2656 7.1875C10.2656 7.09844 10.3078 7 10.3828 6.92969C10.4859 6.82188 10.5328 6.8125 10.889 6.8125C11.2172 6.8125 11.3062 6.82656 11.4093 6.91094ZM14.1328 6.92969C14.2078 7 14.25 7.09844 14.25 7.1875C14.25 7.27656 14.2078 7.375 14.1328 7.44531C14.0297 7.55313 13.9828 7.5625 13.6265 7.5625C13.1343 7.5625 12.9844 7.47344 12.9844 7.1875C12.9844 6.90156 13.1343 6.8125 13.6265 6.8125C13.9828 6.8125 14.0297 6.82188 14.1328 6.92969ZM16.9453 6.92969C17.0203 7 17.0625 7.09844 17.0625 7.1875C17.0625 7.27656 17.0203 7.375 16.9453 7.44531C16.8422 7.55313 16.7953 7.5625 16.439 7.5625C15.9468 7.5625 15.7968 7.47344 15.7968 7.1875C15.7968 6.90156 15.9468 6.8125 16.439 6.8125C16.7953 6.8125 16.8422 6.82188 16.9453 6.92969ZM14.4 10.5672C17.0062 11.3453 18.2203 11.6875 18.3 11.6688C18.3797 11.65 18.7125 11.2797 19.3218 10.5391L20.2265 9.44219H21.1687C22.3312 9.4375 22.4953 9.475 22.8468 9.82656C23.175 10.1547 23.2687 10.45 23.2406 11.0453C23.2125 11.6875 23.0015 12.0391 22.5 12.3016L22.289 12.4141L12.0937 12.4281C0.501538 12.4422 1.58435 12.4797 1.13904 12.0344C0.848413 11.7484 0.749976 11.4672 0.749976 10.9375C0.749976 10.4031 0.848413 10.1313 1.14373 9.83125C1.55623 9.41875 1.23748 9.44688 6.23435 9.4375H10.6172L14.4 10.5672ZM18.7922 10.0094C18.5297 10.3281 18.2625 10.6516 18.1922 10.7313L18.0703 10.8813L15.6797 10.1594L13.289 9.44219H16.2797L19.2703 9.4375L18.7922 10.0094Z" fill="#F4F4F5"/>
</svg>
