<svg width="128" height="108" viewBox="0 0 128 108" fill="none" xmlns="http://www.w3.org/2000/svg">
<g clip-path="url(#clip0_242_104)">
<path fill-rule="evenodd" clip-rule="evenodd" d="M19.3084 87.002V78.821C19.3084 77.746 19.9804 76.8825 21.0934 76.8825H21.4014C22.5139 76.8825 23.1829 77.747 23.1829 78.821V96.0445C23.1829 100.245 21.1079 103.587 17.4919 105.716C15.8355 106.697 13.9448 107.213 12.0194 107.208H11.2509C7.04995 107.208 3.71245 105.132 1.57995 101.518C0.597198 99.8618 0.0815941 97.9703 0.0879487 96.0445V95.277C0.0879487 91.0755 2.16395 87.7355 5.77695 85.6025C7.43307 84.6191 9.32489 84.1033 11.2509 84.11H12.0194C14.8624 84.11 17.2744 85.212 19.3084 87.002ZM3.96195 95.66C3.96195 98.694 5.43245 100.975 8.09095 102.43C9.16595 103.018 10.3329 103.334 11.5594 103.334C14.5374 103.334 16.7464 101.929 18.2699 99.4055C18.9784 98.2315 19.3084 96.947 19.3084 95.5815C19.3084 92.9515 18.0634 90.899 15.9439 89.3745C14.6589 88.4505 13.2124 87.987 11.6349 87.987C8.38895 87.987 6.05295 89.627 4.65095 92.54C4.17795 93.525 3.96195 94.5705 3.96195 95.66ZM36.624 84.11H37.1609C41.6499 84.11 45.064 86.2875 47.2275 90.206C48.0925 91.7735 48.5555 93.4845 48.5555 95.277V96.0445C48.5555 100.245 46.4844 103.591 42.8629 105.716C41.1864 106.7 39.3344 107.208 37.3914 107.208H36.624C32.423 107.208 29.0844 105.132 26.9529 101.518C25.9697 99.862 25.4536 97.9704 25.4594 96.0445V95.277C25.4594 91.075 27.5439 87.746 31.1479 85.6035C32.8234 84.608 34.677 84.11 36.624 84.11ZM29.3339 95.66C29.3339 98.605 30.7789 100.772 33.2664 102.295C34.4344 103.01 35.7209 103.334 37.0854 103.334C39.9954 103.334 42.1465 101.859 43.6435 99.4025C44.3575 98.2315 44.6805 96.945 44.6805 95.5815C44.6805 92.843 43.3614 90.751 41.1064 89.235C39.8709 88.4035 38.4955 87.987 37.0075 87.987C33.7615 87.987 31.4254 89.627 30.0239 92.54C29.5499 93.525 29.3339 94.5705 29.3339 95.66ZM64.6619 88.2965C64.0769 88.0225 62.9819 87.9315 62.3499 87.9075C59.1129 87.7855 56.7709 89.6085 55.3969 92.464C54.9224 93.449 54.706 94.4915 54.706 95.5815C54.706 98.9 56.4485 101.224 59.4104 102.64C60.4924 103.157 61.8894 103.255 63.0719 103.255C64.1119 103.255 65.5819 102.618 66.5049 102.18L66.6649 102.104H67.3814L67.4604 102.12C68.3414 102.303 69.0064 102.862 69.0064 103.81V104.193C69.0064 106.552 64.6954 107.092 63.0504 107.207C57.2454 107.609 52.904 104.421 51.249 98.8835C50.9615 97.922 50.832 96.967 50.832 95.965V95.1985C50.832 90.997 52.917 87.669 56.5205 85.5285C58.196 84.5335 60.0489 84.0335 61.9954 84.0335H62.7635C64.8285 84.0335 66.7304 84.62 68.4354 85.7845L68.5754 85.8815L68.6639 86.0275C68.8479 86.3325 69.0064 86.6855 69.0064 87.0485V87.432C69.0064 88.421 68.2664 88.953 67.3734 89.125L67.2994 89.138H67.0704C66.4924 89.138 65.1779 88.5395 64.6619 88.2965ZM77.2289 90.92C78.7339 89.413 80.2439 87.909 81.7714 86.427C82.1969 86.0135 83.8084 84.2635 84.4429 84.2635H85.1369L85.216 84.28C86.1 84.4635 86.7619 85.023 86.7619 85.973V86.356C86.7619 87.004 86.0029 87.757 85.5844 88.2005C84.6944 89.144 83.7574 90.0565 82.8464 90.9805L78.1654 95.7325C80.1809 97.7525 82.1944 99.774 84.1934 101.81C84.7479 102.371 85.2981 102.937 85.8439 103.508C86.0364 103.71 86.3204 103.962 86.4819 104.243C86.6554 104.506 86.7619 104.802 86.7619 105.119V105.519L86.7394 105.611C86.5219 106.495 85.9609 107.208 84.9814 107.208H84.6729C84.0319 107.208 83.3079 106.483 82.8689 106.069C81.9639 105.216 81.0904 104.319 80.2034 103.447L77.2289 100.527V105.194C77.2289 106.269 76.556 107.133 75.4445 107.133H75.1395C74.0265 107.133 73.3544 106.269 73.3544 105.194V78.896C73.3544 77.821 74.027 76.961 75.1395 76.961H75.4445C76.556 76.961 77.2289 77.821 77.2289 78.896V90.92ZM125.517 84.2635H125.902C127.064 84.2635 127.84 85.0465 127.84 86.202C127.84 87.806 126.306 88.2165 124.98 88.2165C123.24 88.2165 121.578 89.27 120.379 90.4515C118.883 91.926 118.229 93.8145 118.229 95.8905V105.27C118.229 106.345 117.557 107.208 116.444 107.208H116.138C115.024 107.208 114.353 106.346 114.353 105.27V95.352C114.353 91.5435 116.207 88.4345 119.298 86.254C121.144 84.9515 123.258 84.2635 125.517 84.2635ZM97.9804 102.852C99.3904 103.344 100.998 103.274 102.444 103.022C103.184 102.707 105.076 101.882 105.772 102.003L105.881 102.021L105.981 102.07C106.406 102.276 106.811 102.568 107.028 103C107.535 104.014 107.292 105.033 106.296 105.608L105.964 105.8C102.289 107.921 98.3804 107.627 94.7169 105.646C92.9654 104.699 91.6254 103.293 90.6369 101.58L90.4059 101.179C88.0464 97.093 88.3649 92.795 91.0259 88.9095C91.9444 87.5665 93.1449 86.529 94.5484 85.7175L95.0794 85.411C98.5404 83.413 102.25 83.55 105.804 85.3035C107.716 86.2465 109.264 87.652 110.331 89.5005L110.523 89.8335C111.298 91.1765 110.294 92.3465 109.258 93.1465C108.055 94.0745 106.84 95.1915 105.687 96.1865C103.116 98.406 100.549 100.631 97.9804 102.852ZM94.6529 100.515C97.5279 98.0495 100.404 95.582 103.271 93.1065C104.251 92.2615 105.326 91.3845 106.298 90.496C105.518 89.513 104.215 88.8045 103.108 88.382C100.873 87.5305 98.6694 87.8165 96.6199 88.9995C93.9374 90.5485 92.7949 93.015 92.8949 96.0845C92.9349 97.2935 93.2599 98.4585 93.9014 99.487C94.1274 99.8495 94.3799 100.19 94.6529 100.515ZM73.7439 22.876H85.1769V34.5635H90.9574C93.6274 34.5635 96.3729 34.088 98.9009 33.2315C100.143 32.81 101.537 32.224 102.763 31.4865C101.149 29.3795 100.325 26.719 100.083 24.0965C99.7529 20.529 100.473 15.886 102.887 13.094L104.089 11.704L105.521 12.8555C109.126 15.752 112.159 19.8 112.693 24.4145C117.035 23.1375 122.132 23.4395 125.959 25.648L127.529 26.554L126.703 28.167C123.466 34.483 116.7 36.44 110.085 36.0935C100.186 60.748 78.636 72.42 52.5065 72.42C39.0065 72.42 26.6214 67.3735 19.5684 55.3965L19.4529 55.2015L18.4254 53.1105C16.0414 47.8385 15.2494 42.063 15.7864 36.292L15.9479 34.5635H25.7249V22.876H37.1575V11.443H60.0239V0.0100098H73.7439V22.876Z" fill="#364548"/>
<path fill-rule="evenodd" clip-rule="evenodd" d="M110.785 27.2001C111.552 21.2421 107.093 16.5626 104.328 14.3406C101.142 18.0246 100.647 27.6796 105.646 31.7446C102.856 34.2226 96.9772 36.4686 90.9577 36.4686H17.6852C17.1002 42.7521 18.2032 48.5386 20.7227 53.4911L21.5562 55.0161C22.084 55.9112 22.6607 56.7765 23.2837 57.6081C26.2962 57.8016 29.0737 57.8681 31.6147 57.8121H31.6157C36.6092 57.7021 40.6837 57.1121 43.7717 56.0421C43.99 55.9742 44.2262 55.9938 44.4303 56.0969C44.6343 56.2 44.7903 56.3784 44.8652 56.5944C44.9401 56.8105 44.928 57.0471 44.8315 57.2544C44.7351 57.4617 44.5617 57.6233 44.3482 57.7051C43.9372 57.8481 43.5092 57.9811 43.0672 58.1076H43.0657C40.6342 58.8021 38.0267 59.2691 34.6627 59.4766C34.8627 59.4801 34.4547 59.5066 34.4537 59.5066C34.3392 59.5141 34.1952 59.5306 34.0802 59.5366C32.7562 59.6111 31.3272 59.6266 29.8662 59.6266C28.2682 59.6266 26.6947 59.5966 24.9352 59.5066L24.8902 59.5366C30.9952 66.3986 40.5412 70.5141 52.5072 70.5141C77.8312 70.5141 99.3112 59.2881 108.823 34.0856C115.571 34.7781 122.057 33.0571 125.007 27.2981C120.308 24.5866 114.265 25.4511 110.785 27.2001Z" fill="#22A0C8"/>
<path fill-rule="evenodd" clip-rule="evenodd" d="M110.785 27.2001C111.552 21.2421 107.093 16.5626 104.328 14.3406C101.142 18.0246 100.647 27.6796 105.646 31.7446C102.856 34.2226 96.9772 36.4686 90.9577 36.4686H22.0242C21.7252 46.0916 25.2962 53.3961 31.6142 57.8121H31.6157C36.6092 57.7021 40.6837 57.1121 43.7717 56.0421C43.99 55.9742 44.2262 55.9938 44.4303 56.0969C44.6343 56.2 44.7903 56.3784 44.8652 56.5944C44.9401 56.8105 44.928 57.0471 44.8315 57.2544C44.735 57.4617 44.5617 57.6233 44.3482 57.7051C43.9372 57.8481 43.5092 57.9811 43.0672 58.1076H43.0657C40.6342 58.8021 37.8027 59.3291 34.4387 59.5366C34.4377 59.5366 34.3572 59.4591 34.3562 59.4591C42.9747 63.8801 55.4712 63.8641 69.7987 58.3606C85.8637 52.1886 100.813 40.4306 111.244 26.9821C111.087 27.0531 110.934 27.1256 110.785 27.2001Z" fill="#37B1D9"/>
<path fill-rule="evenodd" clip-rule="evenodd" d="M17.8223 44.103C18.2773 47.469 19.2623 50.6205 20.7223 53.491L21.5558 55.016C22.0834 55.9112 22.6601 56.7765 23.2833 57.608C26.2963 57.8015 29.0738 57.868 31.6153 57.812C36.6088 57.702 40.6833 57.112 43.7713 56.042C43.9896 55.9741 44.2257 55.9938 44.4298 56.0969C44.6339 56.2 44.7898 56.3784 44.8647 56.5944C44.9396 56.8104 44.9275 57.0471 44.8311 57.2544C44.7346 57.4616 44.5613 57.6232 44.3478 57.705C43.9368 57.848 43.5088 57.981 43.0668 58.1075H43.0653C40.6338 58.802 37.8173 59.299 34.4533 59.507C34.3378 59.514 34.1363 59.5155 34.0198 59.522C32.6968 59.596 31.2823 59.6415 29.8208 59.6415C28.2233 59.6415 26.5893 59.611 24.8308 59.5215C30.9358 66.3835 40.5408 70.514 52.5068 70.514C74.1868 70.514 93.0488 62.285 103.996 44.103H17.8223Z" fill="#1B81A5"/>
<path fill-rule="evenodd" clip-rule="evenodd" d="M22.6836 44.103C23.9796 50.013 27.0941 54.6525 31.6156 57.812C36.6091 57.702 40.6836 57.112 43.7716 56.042C43.9899 55.9741 44.2261 55.9938 44.4301 56.0969C44.6342 56.2 44.7902 56.3784 44.865 56.5944C44.9399 56.8104 44.9279 57.0471 44.8314 57.2544C44.7349 57.4616 44.5616 57.6232 44.3481 57.705C43.9371 57.848 43.5091 57.981 43.0671 58.1075H43.0656C40.6341 58.802 37.7581 59.299 34.3936 59.507C43.0116 63.927 55.4721 63.8635 69.7986 58.3605C78.4656 55.0305 86.8071 50.0735 94.2906 44.103H22.6836Z" fill="#1D91B4"/>
<path fill-rule="evenodd" clip-rule="evenodd" d="M27.6299 24.7814H37.5389V34.6904H27.6299V24.7814ZM28.4554 25.6074H29.2374V33.8649H28.4554V25.6074ZM29.9254 25.6074H30.7389V33.8649H29.9259L29.9254 25.6074ZM31.4264 25.6074H32.2399V33.8649H31.4264V25.6074ZM32.9284 25.6074H33.7414V33.8649H32.9284V25.6074ZM34.4299 25.6074H35.2429V33.8649H34.4299V25.6074ZM35.9309 25.6074H36.7134V33.8649H35.9309V25.6074ZM39.0629 13.3484H48.9724V23.2569H39.0624L39.0629 13.3484ZM39.8889 14.1744H40.6704V22.4314H39.8889V14.1744ZM41.3589 14.1744H42.1719V22.4314H41.3594L41.3589 14.1744ZM42.8599 14.1744H43.6729V22.4314H42.8599V14.1744ZM44.3614 14.1744H45.1744V22.4314H44.3614V14.1744ZM45.8629 14.1744H46.6764V22.4314H45.8629V14.1744ZM47.3639 14.1744H48.1469V22.4314H47.3639V14.1744Z" fill="#23A3C2"/>
<path fill-rule="evenodd" clip-rule="evenodd" d="M39.063 24.7815H48.9725V34.6905H39.0625L39.063 24.7815ZM39.889 25.6075H40.6705V33.865H39.889V25.6075ZM41.359 25.6075H42.172V33.865H41.3595L41.359 25.6075ZM42.86 25.6075H43.673V33.865H42.86V25.6075ZM44.3615 25.6075H45.1745V33.865H44.3615V25.6075ZM45.863 25.6075H46.6765V33.865H45.863V25.6075ZM47.364 25.6075H48.147V33.865H47.364V25.6075Z" fill="#34BBDE"/>
<path fill-rule="evenodd" clip-rule="evenodd" d="M50.4966 24.7815H60.4056V34.6905H50.4966V24.7815ZM51.3221 25.6075H52.1036V33.865H51.3221V25.6075ZM52.7921 25.6075H53.6051V33.865H52.7921V25.6075ZM54.2936 25.6075H55.1066V33.865H54.2936V25.6075ZM55.7951 25.6075H56.6081V33.865H55.7951V25.6075ZM57.2961 25.6075H58.1101V33.865H57.2961V25.6075ZM58.7976 25.6075H59.5796V33.865H58.7976V25.6075Z" fill="#23A3C2"/>
<path fill-rule="evenodd" clip-rule="evenodd" d="M50.4966 13.3484H60.4056V23.2569H50.4966V13.3484ZM51.3221 14.1744H52.1036V22.4314H51.3221V14.1744ZM52.7921 14.1744H53.6051V22.4314H52.7921V14.1744ZM54.2936 14.1744H55.1066V22.4314H54.2936V14.1744ZM55.7951 14.1744H56.6081V22.4314H55.7951V14.1744ZM57.2961 14.1744H58.1101V22.4314H57.2961V14.1744ZM58.7976 14.1744H59.5796V22.4314H58.7976V14.1744ZM61.9296 24.7814H71.8386V34.6904H61.9296V24.7814ZM62.7556 25.6074H63.5371V33.8649H62.7556V25.6074ZM64.2256 25.6074H65.0386V33.8649H64.2256V25.6074ZM65.7266 25.6074H66.5396V33.8649H65.7266V25.6074ZM67.2281 25.6074H68.0416V33.8649H67.2281V25.6074ZM68.7296 25.6074H69.5431V33.8649H68.7296V25.6074ZM70.2311 25.6074H71.0131V33.8649H70.2311V25.6074Z" fill="#34BBDE"/>
<path fill-rule="evenodd" clip-rule="evenodd" d="M61.9297 13.3484H71.8387V23.2569H61.9297V13.3484ZM62.7557 14.1744H63.5372V22.4314H62.7557V14.1744ZM64.2257 14.1744H65.0387V22.4314H64.2257V14.1744ZM65.7267 14.1744H66.5397V22.4314H65.7267V14.1744ZM67.2282 14.1744H68.0417V22.4314H67.2282V14.1744ZM68.7297 14.1744H69.5432V22.4314H68.7297V14.1744ZM70.2312 14.1744H71.0132V22.4314H70.2312V14.1744Z" fill="#23A3C2"/>
<path fill-rule="evenodd" clip-rule="evenodd" d="M61.9297 1.91504H71.8387V11.825H61.9297V1.91504ZM62.7557 2.74054H63.5372V10.9985H62.7557V2.74054ZM64.2257 2.74054H65.0387V10.9985H64.2257V2.74054ZM65.7267 2.74054H66.5397V10.9985H65.7267V2.74054ZM67.2282 2.74054H68.0417V10.9985H67.2282V2.74054ZM68.7297 2.74054H69.5432V10.9985H68.7297V2.74054ZM70.2312 2.74054H71.0132V10.9985H70.2312V2.74054Z" fill="#34BBDE"/>
<path fill-rule="evenodd" clip-rule="evenodd" d="M73.3623 24.7815H83.2713V34.6905H73.3623V24.7815ZM74.1873 25.6075H74.9698V33.865H74.1878V25.6075H74.1873ZM75.6573 25.6075H76.4708V33.865H75.6578L75.6573 25.6075ZM77.1593 25.6075H77.9728V33.865H77.1593V25.6075ZM78.6603 25.6075H79.4738V33.865H78.6603V25.6075ZM80.1623 25.6075H80.9753V33.865H80.1623V25.6075ZM81.6633 25.6075H82.4453V33.865H81.6633V25.6075Z" fill="#23A3C2"/>
<path fill-rule="evenodd" clip-rule="evenodd" d="M48.3518 50.7561C48.7139 50.7513 49.0734 50.8184 49.4093 50.9537C49.7453 51.0889 50.051 51.2896 50.3088 51.544C50.5665 51.7983 50.7712 52.1014 50.9108 52.4355C51.0505 52.7697 51.1224 53.1282 51.1223 53.4904C51.1222 53.8525 51.0502 54.211 50.9104 54.5451C50.7707 54.8792 50.5659 55.1822 50.3081 55.4365C50.0502 55.6908 49.7444 55.8913 49.4084 56.0264C49.0724 56.1615 48.7129 56.2286 48.3508 56.2236C47.6322 56.2138 46.9463 55.9213 46.4417 55.4096C45.937 54.8979 45.6542 54.2081 45.6543 53.4894C45.6544 52.7707 45.9375 52.0809 46.4424 51.5694C46.9472 51.0579 47.6332 50.7657 48.3518 50.7561Z" fill="#D3ECEC"/>
<path fill-rule="evenodd" clip-rule="evenodd" d="M48.352 51.5315C48.602 51.5315 48.8405 51.5785 49.0605 51.664C48.9087 51.7522 48.7901 51.8878 48.7231 52.0501C48.6561 52.2123 48.6444 52.3922 48.6898 52.5617C48.7352 52.7313 48.8352 52.8812 48.9743 52.9882C49.1135 53.0953 49.284 53.1536 49.4595 53.154C49.762 53.154 50.0245 52.9865 50.1605 52.7385C50.3215 53.1264 50.3535 53.5558 50.2518 53.9633C50.15 54.3708 49.9199 54.7347 49.5954 55.0014C49.2709 55.268 48.8693 55.4233 48.4498 55.4441C48.0303 55.465 47.6153 55.3504 47.2659 55.1172C46.9166 54.8841 46.6515 54.5447 46.5098 54.1494C46.3681 53.754 46.3574 53.3235 46.4791 52.9216C46.6009 52.5196 46.8487 52.1675 47.1859 51.9172C47.5232 51.6669 47.932 51.5317 48.352 51.5315ZM0 45.091H127.163C124.395 44.389 118.404 43.44 119.392 39.811C114.357 45.637 102.215 43.8985 99.1505 41.026C95.7385 45.975 75.8735 44.0935 74.488 40.238C70.21 45.2585 56.9545 45.2585 52.6765 40.238C51.29 44.0935 31.4255 45.975 28.013 41.0255C24.949 43.8985 12.808 45.637 7.773 39.8115C8.761 43.44 2.7695 44.3885 0 45.091Z" fill="#364548"/>
<path fill-rule="evenodd" clip-rule="evenodd" d="M55.6185 70.4549C48.8485 67.2424 45.133 62.8749 43.0655 58.1079C40.5505 58.8254 37.528 59.2844 34.0155 59.4814C32.6925 59.5554 31.3005 59.5934 29.8405 59.5934C28.1565 59.5934 26.382 59.5434 24.519 59.4449C30.7275 65.6499 38.365 70.4269 52.507 70.5139C53.551 70.5139 54.587 70.4939 55.6185 70.4549Z" fill="#BDD9D7"/>
<path fill-rule="evenodd" clip-rule="evenodd" d="M45.5801 62.5069C44.6436 61.2354 43.7351 59.6374 43.0671 58.1069C40.5521 58.8254 37.5286 59.2844 34.0156 59.4819C36.4286 60.7914 39.8786 62.0049 45.5801 62.5069Z" fill="#D3ECEC"/>
</g>
<defs>
<clipPath id="clip0_242_104">
<rect width="128" height="107.52" fill="white"/>
</clipPath>
</defs>
</svg>
