<svg width="128" height="36" viewBox="0 0 128 36" fill="none" xmlns="http://www.w3.org/2000/svg">
<g clip-path="url(#clip0_242_127)">
<path d="M30.9404 0.0292969V27.2123L34.4316 27.2256V14.287H42.8663V10.8625H34.4316V3.45382H45.4114V0.0292969H30.9404ZM51.7141 5.54585C52.98 5.54585 53.9927 4.51982 53.9927 3.26727C53.9927 2.01472 52.9667 0.988697 51.7141 0.988697C50.4482 0.988697 49.4355 2.01472 49.4355 3.26727C49.4355 4.51982 50.4616 5.54585 51.7141 5.54585ZM49.9419 8.97037V27.2123H53.433V8.97037H49.9419Z" fill="white"/>
<path fill-rule="evenodd" clip-rule="evenodd" d="M66.3987 8.4375C61.7482 8.4375 58.5103 12.3684 58.5103 17.0321C58.5103 21.6959 61.7482 25.6268 66.3987 25.6268C68.5307 25.6268 70.2762 24.8006 71.5554 23.4681V25.8799C71.5554 28.9047 69.1836 31.4231 66.0789 31.4231C64.9596 31.4231 63.8536 30.9967 62.9741 30.3838L61.2152 33.4219C62.6144 34.328 64.28 34.8477 66.0655 34.8477C71.0224 34.8477 75.0333 30.8368 75.0333 25.8799V8.9705H71.5554V10.5962C70.2762 9.26365 68.5307 8.4375 66.3987 8.4375ZM62.0147 17.0321C62.0147 14.1406 64.2267 11.862 66.7851 11.862C69.3435 11.862 71.5554 14.1406 71.5554 17.0321C71.5554 19.9237 69.3435 22.2022 66.7851 22.2022C64.2267 22.2022 62.0147 19.9237 62.0147 17.0321Z" fill="white"/>
<path d="M87.652 11.862C85.5866 11.862 83.9077 13.6209 83.9077 15.6863V27.2124H80.4165V8.9705H83.9077V10.6361C84.9337 9.31695 86.4394 8.4375 88.4115 8.4375C90.8633 8.4375 92.7421 9.65008 93.8348 11.5156C95.0474 9.7167 97.0195 8.4375 99.4046 8.4375C103.389 8.4375 105.867 11.6488 105.881 15.6197V27.2124H102.389V15.673C102.389 13.6076 100.71 11.8487 98.6451 11.8487C96.5797 11.8487 94.9008 13.6076 94.9008 15.673V27.2124H91.4096V15.673C91.3963 13.6076 89.7174 11.862 87.652 11.862Z" fill="white"/>
<path fill-rule="evenodd" clip-rule="evenodd" d="M124.509 11.0359C122.95 9.42355 120.818 8.4375 118.353 8.4375C113.156 8.4375 109.452 12.8481 109.452 18.0981C109.452 23.3482 113.143 27.7588 118.353 27.7588C120.818 27.7588 122.95 26.7594 124.509 25.1604V27.2124H128V8.9705H124.509V11.0359ZM112.956 18.0981C112.956 14.6203 115.621 11.862 118.739 11.862C121.844 11.862 124.522 14.607 124.522 18.0981C124.522 21.576 121.857 24.3342 118.739 24.3342C115.621 24.3209 112.956 21.576 112.956 18.0981Z" fill="white"/>
<path d="M11.7393 17.6451C11.7393 14.4071 14.3643 11.7688 17.6156 11.7688C20.8536 11.7688 23.4919 14.3938 23.4919 17.6451C23.4919 20.8831 20.8669 23.5215 17.6156 23.5215C14.3776 23.5215 11.7393 20.8831 11.7393 17.6451Z" fill="#1ABCFE"/>
<path d="M0 29.3844C0 26.1464 2.62503 23.5081 5.87633 23.5081H11.7527V29.3844C11.7527 32.6224 9.12763 35.2607 5.87633 35.2607C2.62503 35.2607 0 32.6357 0 29.3844Z" fill="#0ACF83"/>
<path d="M11.7393 0.0294383V11.7688H17.6156C20.8536 11.7688 23.4919 9.14374 23.4919 5.89244C23.4919 2.65446 20.8669 0.0161133 17.6156 0.0161133H11.7393V0.0294383Z" fill="#FF7262"/>
<path d="M0 5.90562C0 9.1436 2.62503 11.782 5.87633 11.782H11.7527V0.0292969H5.87633C2.62503 0.0292969 0 2.65432 0 5.90562Z" fill="#F24E1E"/>
<path d="M0 17.6451C0 20.8831 2.62503 23.5215 5.87633 23.5215H11.7527V11.7688H5.87633C2.62503 11.7688 0 14.4071 0 17.6451Z" fill="#A259FF"/>
</g>
<defs>
<clipPath id="clip0_242_127">
<rect width="128" height="35.2768" fill="white"/>
</clipPath>
</defs>
</svg>
