<svg width="128" height="125" viewBox="0 0 128 125" fill="none" xmlns="http://www.w3.org/2000/svg">
<g clip-path="url(#clip0_242_148)">
<path d="M63.7525 0C28.5475 0 0 28.5425 0 63.7525C0 91.9205 18.267 115.817 43.598 124.247C46.784 124.837 47.954 122.864 47.954 121.18C47.954 119.66 47.8945 114.638 47.8675 109.311C30.131 113.167 26.3885 101.789 26.3885 101.789C23.4885 94.42 19.31 92.461 19.31 92.461C13.526 88.504 19.746 88.585 19.746 88.585C26.148 89.035 29.519 95.155 29.519 95.155C35.205 104.901 44.433 102.084 48.071 100.455C48.643 96.334 50.2955 93.522 52.1185 91.93C37.9585 90.3175 23.0725 84.851 23.0725 60.423C23.0725 53.463 25.563 47.7755 29.6415 43.311C28.9795 41.705 26.7975 35.221 30.259 26.4395C30.259 26.4395 35.6125 24.726 47.7955 32.9745C52.8805 31.5615 58.3345 30.8535 63.7525 30.8295C69.1705 30.8535 74.6285 31.5615 79.7235 32.9745C91.892 24.726 97.238 26.4395 97.238 26.4395C100.708 35.221 98.525 41.705 97.863 43.311C101.95 47.7755 104.424 53.4625 104.424 60.423C104.424 84.909 89.51 90.301 75.314 91.879C77.6005 93.8575 79.638 97.7375 79.638 103.685C79.638 112.215 79.564 119.08 79.564 121.18C79.564 122.877 80.7115 124.865 83.9435 124.239C109.26 115.799 127.505 91.911 127.505 63.7525C127.505 28.5425 98.961 0 63.7525 0Z" fill="#161614"/>
<path d="M23.8774 90.8169C23.7374 91.1334 23.2384 91.2284 22.7849 91.0114C22.3224 90.8034 22.0624 90.3714 22.2124 90.0534C22.3499 89.7274 22.8489 89.6364 23.3104 89.8554C23.7739 90.0629 24.0379 90.4989 23.8774 90.8169ZM27.0134 93.6149C26.7094 93.8969 26.1149 93.7659 25.7114 93.3204C25.2944 92.8759 25.2164 92.2819 25.5249 91.9954C25.8384 91.7139 26.4149 91.8454 26.8329 92.2904C27.2499 92.7399 27.3309 93.3304 27.0129 93.6154M29.1649 97.1949C28.7739 97.4664 28.1349 97.2119 27.7404 96.6449C27.3499 96.0784 27.3499 95.3984 27.7489 95.1259C28.1449 94.8534 28.7739 95.0984 29.1739 95.6609C29.5639 96.2374 29.5639 96.9174 29.1644 97.1954M32.8029 101.341C32.4534 101.726 31.7094 101.623 31.1644 101.097C30.6074 100.583 30.4519 99.8539 30.8024 99.4684C31.1559 99.0824 31.9044 99.1909 32.4534 99.7124C33.0069 100.225 33.1754 100.96 32.8029 101.341ZM37.5049 102.741C37.3514 103.24 36.6344 103.467 35.9124 103.255C35.1914 103.037 34.7195 102.452 34.865 101.947C35.015 101.445 35.735 101.208 36.4625 101.435C37.1825 101.653 37.6549 102.233 37.5049 102.741ZM42.8569 103.335C42.8749 103.861 42.2624 104.297 41.5044 104.306C40.7419 104.323 40.1254 103.897 40.1174 103.38C40.1174 102.849 40.7159 102.417 41.4779 102.405C42.2359 102.39 42.8569 102.812 42.8569 103.335ZM48.1139 103.133C48.2049 103.646 47.6779 104.173 46.9254 104.313C46.1854 104.448 45.5004 104.132 45.4059 103.623C45.3139 103.097 45.8509 102.571 46.5894 102.434C47.3434 102.303 48.0179 102.612 48.1139 103.133Z" fill="#161614"/>
</g>
<defs>
<clipPath id="clip0_242_148">
<rect width="128" height="124.518" fill="white"/>
</clipPath>
</defs>
</svg>
