<svg width="33" height="32" viewBox="0 0 33 32" fill="none" xmlns="http://www.w3.org/2000/svg">
<rect width="32.5" height="32" rx="4" fill="#495867"/>
<path d="M4.12 22.7977L4.216 22.6057C4.296 22.5097 4.392 22.4617 4.504 22.4617C4.68 22.4617 4.776 22.5417 4.792 22.7017C4.824 22.8297 4.816 22.9657 4.768 23.1097C4.72 23.2537 4.656 23.3657 4.576 23.4457C4.384 23.5257 4.272 23.5497 4.24 23.5177C4.112 23.4057 4.032 23.3177 4 23.2537C3.984 23.1897 3.992 23.1337 4.024 23.0857C4.056 23.0217 4.088 22.9257 4.12 22.7977ZM14.152 22.4137C14.2 22.4137 14.256 22.3817 14.32 22.3177C14.352 22.2857 14.416 22.2697 14.512 22.2697C14.544 22.3177 14.576 22.3657 14.608 22.4137C14.656 22.4457 14.68 22.5257 14.68 22.6537C14.68 22.8297 14.632 22.9897 14.536 23.1337C14.504 23.1657 14.456 23.2057 14.392 23.2537C14.328 23.3017 14.28 23.3257 14.248 23.3257C14.184 23.2777 14.128 23.2377 14.08 23.2057C14.048 23.1577 14.024 23.1257 14.008 23.1097C13.992 23.1097 13.968 23.0617 13.936 22.9657C13.92 22.8857 13.944 22.7977 14.008 22.7017C14.088 22.5897 14.136 22.4937 14.152 22.4137ZM4.816 11.6857C4.784 11.7337 4.76 11.7817 4.744 11.8297C4.728 11.8777 4.68 11.9177 4.6 11.9497C4.52 11.9337 4.44 11.9177 4.36 11.9017C4.296 11.8857 4.248 11.8377 4.216 11.7577C4.216 11.7257 4.216 11.6937 4.216 11.6617C4.232 11.6297 4.232 11.5977 4.216 11.5657C4.216 11.5017 4.232 11.4457 4.264 11.3977C4.248 11.2537 4.312 11.1817 4.456 11.1817C4.552 11.1817 4.624 11.2057 4.672 11.2537C4.704 11.3017 4.744 11.3577 4.792 11.4217C4.84 11.4697 4.848 11.5577 4.816 11.6857ZM9.088 14.1577L8.968 13.9897C8.968 13.7977 9.024 13.6777 9.136 13.6297C9.248 13.5657 9.376 13.5337 9.52 13.5337C9.648 13.6137 9.696 13.7257 9.664 13.8697C9.552 14.1097 9.424 14.2297 9.28 14.2297C9.2 14.2297 9.136 14.2057 9.088 14.1577ZM9.664 9.38172L9.808 9.33372H9.928C10.056 9.36572 10.16 9.38972 10.24 9.40572C10.32 9.40572 10.4 9.41372 10.48 9.42972C10.64 9.46172 10.768 9.53372 10.864 9.64572C11.024 9.64572 11.224 9.68572 11.464 9.76572C11.56 9.92572 11.656 10.1017 11.752 10.2937C11.848 10.4697 11.912 10.6457 11.944 10.8217L12.088 10.9897C12.12 11.0697 12.168 11.1577 12.232 11.2537C12.296 11.3337 12.392 11.3897 12.52 11.4217C12.536 11.4377 12.568 11.4457 12.616 11.4457C12.696 11.4457 12.792 11.4057 12.904 11.3257C12.952 11.2937 13 11.2377 13.048 11.1577C13.08 11.1257 13.112 11.1017 13.144 11.0857C13.176 11.0537 13.208 11.0297 13.24 11.0137C13.336 10.9177 13.392 10.8697 13.408 10.8697C13.44 10.7897 13.504 10.7177 13.6 10.6537C13.68 10.4457 13.728 10.3337 13.744 10.3177L13.816 10.1737C14.152 9.90172 14.416 9.62972 14.608 9.35772C14.88 9.16572 15.056 9.06972 15.136 9.06972C15.184 9.06972 15.224 9.07772 15.256 9.09372C15.32 9.02972 15.416 8.99772 15.544 8.99772C15.624 8.98172 15.696 8.96572 15.76 8.94972C15.84 8.93372 15.92 8.90972 16 8.87772C16.048 8.86172 16.112 8.85372 16.192 8.85372C16.288 8.85372 16.36 8.86972 16.408 8.90172C16.632 8.93372 16.848 8.94972 17.056 8.94972C17.232 8.94972 17.4 8.99772 17.56 9.09372C17.736 9.17372 17.856 9.25372 17.92 9.33372C17.984 9.42972 18.04 9.50172 18.088 9.54972C18.184 9.62972 18.248 9.72572 18.28 9.83772C18.312 9.96572 18.376 10.0457 18.472 10.0777C18.504 10.2697 18.536 10.3977 18.568 10.4617C18.6 10.5097 18.632 10.5497 18.664 10.5817C18.744 10.6617 18.792 10.7577 18.808 10.8697C18.824 10.9817 18.816 11.0857 18.784 11.1817C18.768 11.2297 18.76 11.2857 18.76 11.3497C18.76 11.3977 18.76 11.4457 18.76 11.4937C18.872 11.7017 18.888 11.9337 18.808 12.1897C18.728 12.4297 18.688 12.6537 18.688 12.8617C18.672 13.1177 18.624 13.3417 18.544 13.5337C18.512 13.6297 18.48 13.7257 18.448 13.8217C18.416 13.9177 18.392 14.0137 18.376 14.1097C18.36 14.1737 18.352 14.2617 18.352 14.3737C18.368 14.4697 18.336 14.5497 18.256 14.6137C18.272 14.6457 18.272 14.6937 18.256 14.7577C18.24 14.8217 18.216 14.8697 18.184 14.9017C18.184 15.1097 18.152 15.2457 18.088 15.3097C18.024 15.4057 17.992 15.5097 17.992 15.6217C17.944 15.7497 17.952 15.8457 18.016 15.9097C18.08 16.0697 18.104 16.2457 18.088 16.4377C18.056 16.5657 18.048 16.6617 18.064 16.7257C18.08 16.7897 18.104 16.8377 18.136 16.8697C18.168 16.9337 18.176 17.0057 18.16 17.0857C18.16 17.1497 18.144 17.2057 18.112 17.2537C18.096 17.3017 18.088 17.3897 18.088 17.5177V17.6617C18.088 17.7577 18.08 17.8217 18.064 17.8537C18.048 18.0457 18 18.1577 17.92 18.1897C17.92 18.3337 17.88 18.4857 17.8 18.6457C17.816 18.7097 17.864 18.7417 17.944 18.7417C18.184 18.8537 18.304 19.0137 18.304 19.2217C18.304 19.2697 18.288 19.3257 18.256 19.3897C18.224 19.4217 18.208 19.4537 18.208 19.4857C18.208 19.5017 18.2 19.5257 18.184 19.5577C18.152 19.7177 18.152 19.8537 18.184 19.9657C18.232 20.0777 18.296 20.1737 18.376 20.2537C18.408 20.5097 18.456 20.6697 18.52 20.7337C18.584 20.7977 18.656 20.8697 18.736 20.9497C18.768 21.0137 18.792 21.0697 18.808 21.1177C18.84 21.1497 18.872 21.1897 18.904 21.2377C18.936 21.2857 18.968 21.3417 19 21.4057C19.032 21.4537 19.064 21.4937 19.096 21.5257C19.144 21.6377 19.184 21.7417 19.216 21.8377C19.248 21.9337 19.264 22.0457 19.264 22.1737C19.2 22.3017 19.144 22.4137 19.096 22.5097C19.064 22.5897 19.04 22.6697 19.024 22.7497C19.008 22.8777 18.944 22.9977 18.832 23.1097C18.816 23.1897 18.752 23.2777 18.64 23.3737C18.544 23.4697 18.456 23.5257 18.376 23.5417H18.304C18.24 23.5417 18.192 23.5257 18.16 23.4937C18.112 23.4937 18.064 23.4937 18.016 23.4937C17.984 23.4777 17.952 23.4697 17.92 23.4697C17.824 23.4697 17.744 23.4857 17.68 23.5177C17.52 23.5817 17.368 23.6137 17.224 23.6137C16.968 23.6137 16.8 23.5177 16.72 23.3257C16.64 23.3097 16.568 23.2537 16.504 23.1577C16.472 23.1257 16.448 23.0937 16.432 23.0617C16.416 23.0297 16.392 22.9977 16.36 22.9657C16.28 22.7897 16.216 22.5977 16.168 22.3897C16.12 22.1657 16.104 21.9497 16.12 21.7417C16.056 21.6617 16.04 21.5657 16.072 21.4537C16.104 21.3737 16.136 21.2697 16.168 21.1417C16.152 21.0457 16.144 20.9737 16.144 20.9257C16.16 20.8617 16.168 20.8137 16.168 20.7817C16.168 20.6217 16.16 20.5257 16.144 20.4937C16.096 20.0457 16.056 19.6617 16.024 19.3417C15.992 19.0057 15.992 18.7097 16.024 18.4537C16.088 18.2777 16.096 18.1017 16.048 17.9257C16.016 17.7497 16.016 17.5897 16.048 17.4457C16.048 17.2857 16.064 17.1897 16.096 17.1577C16.096 16.9177 16.144 16.7177 16.24 16.5577C16.224 16.3977 16.208 16.2537 16.192 16.1257C16.192 15.9817 16.232 15.8697 16.312 15.7897C16.312 15.6777 16.336 15.5977 16.384 15.5497L16.456 15.2377C16.488 15.1897 16.52 15.0937 16.552 14.9497C16.68 14.8537 16.72 14.7177 16.672 14.5417C16.64 14.4617 16.616 14.3897 16.6 14.3257C16.584 14.2457 16.568 14.1817 16.552 14.1337C16.552 14.0537 16.56 13.9977 16.576 13.9657C16.576 13.9177 16.576 13.8537 16.576 13.7737C16.592 13.6937 16.6 13.6137 16.6 13.5337C16.568 13.3257 16.584 13.1337 16.648 12.9577C16.68 12.8617 16.656 12.7657 16.576 12.6697C16.528 12.4777 16.464 12.3417 16.384 12.2617C16.304 12.1657 16.216 12.0617 16.12 11.9497C16.088 11.8697 16.064 11.8057 16.048 11.7577C16.048 11.6937 16.048 11.6297 16.048 11.5657C15.984 11.5177 15.896 11.4937 15.784 11.4937C15.752 11.4937 15.672 11.5097 15.544 11.5417C15.512 11.5417 15.472 11.5497 15.424 11.5657C15.392 11.5817 15.352 11.5977 15.304 11.6137C15.256 11.6297 15.208 11.6457 15.16 11.6617C15.128 11.6777 15.104 11.6857 15.088 11.6857L14.8 11.9017C14.688 11.9497 14.6 12.0377 14.536 12.1657C14.44 12.2617 14.368 12.3257 14.32 12.3577C14.192 12.4217 14.128 12.5337 14.128 12.6937C14.112 12.7577 14.08 12.8217 14.032 12.8857C13.952 13.0777 13.896 13.2537 13.864 13.4137C13.848 13.5577 13.824 13.7177 13.792 13.8937C13.76 14.0057 13.72 14.1257 13.672 14.2537C13.64 14.3337 13.616 14.4057 13.6 14.4697C13.584 14.5177 13.56 14.5817 13.528 14.6617C13.56 14.8217 13.536 14.9497 13.456 15.0457C13.408 15.1737 13.384 15.2937 13.384 15.4057C13.4 15.5177 13.424 15.6537 13.456 15.8137V16.2217C13.488 16.3177 13.488 16.4297 13.456 16.5577C13.44 16.6697 13.408 16.7657 13.36 16.8457C13.376 16.9257 13.368 17.0457 13.336 17.2057C13.304 17.3337 13.272 17.4777 13.24 17.6377C13.208 17.7977 13.232 17.9817 13.312 18.1897C13.36 18.4297 13.376 18.6617 13.36 18.8857C13.36 18.9657 13.376 19.0697 13.408 19.1977C13.44 19.3417 13.448 19.4377 13.432 19.4857C13.368 19.5817 13.328 19.6777 13.312 19.7737C13.312 19.8697 13.328 19.9977 13.36 20.1577C13.392 20.2537 13.424 20.3417 13.456 20.4217C13.536 20.5177 13.544 20.6297 13.48 20.7577C13.512 20.8857 13.52 20.9737 13.504 21.0217C13.472 21.1177 13.456 21.1897 13.456 21.2377C13.488 21.4617 13.504 21.6697 13.504 21.8617C13.504 22.0377 13.488 22.2057 13.456 22.3657L13.384 22.5577C13.352 22.6537 13.336 22.7257 13.336 22.7737C13.368 22.9977 13.368 23.1657 13.336 23.2777C13.304 23.3897 13.256 23.4857 13.192 23.5657C13.096 23.6137 13.008 23.6617 12.928 23.7097C12.864 23.7577 12.8 23.7977 12.736 23.8297C12.656 23.8777 12.584 23.9097 12.52 23.9257C12.456 23.9257 12.376 23.9257 12.28 23.9257C12.2 23.9577 12.136 23.9817 12.088 23.9977C12.04 23.9977 11.976 23.9977 11.896 23.9977C11.848 23.9657 11.792 23.9497 11.728 23.9497C11.68 23.9337 11.632 23.9257 11.584 23.9257C11.472 23.9257 11.352 23.9177 11.224 23.9017C11.112 23.8697 11.04 23.8137 11.008 23.7337C10.944 23.6537 10.864 23.5897 10.768 23.5417C10.704 23.4937 10.656 23.4217 10.624 23.3257C10.608 23.2937 10.6 23.2697 10.6 23.2537C10.6 23.2217 10.592 23.1897 10.576 23.1577C10.56 23.0937 10.552 22.9977 10.552 22.8697C10.552 22.7897 10.52 22.7177 10.456 22.6537C10.44 22.5897 10.456 22.5097 10.504 22.4137C10.552 22.3497 10.576 22.2937 10.576 22.2457C10.592 22.1977 10.6 22.1417 10.6 22.0777C10.616 21.9817 10.616 21.9177 10.6 21.8857C10.6 21.8537 10.608 21.8217 10.624 21.7897C10.64 21.7577 10.648 21.7017 10.648 21.6217C10.696 21.4937 10.744 21.3817 10.792 21.2857C10.84 21.1897 10.88 21.0777 10.912 20.9497C10.928 20.9017 10.944 20.8617 10.96 20.8297C10.976 20.7817 11 20.7337 11.032 20.6857L11.152 20.4697C11.184 20.4057 11.208 20.3497 11.224 20.3017C11.24 20.2537 11.256 20.2137 11.272 20.1817C11.24 20.0857 11.232 19.9897 11.248 19.8937C11.28 19.7657 11.256 19.6697 11.176 19.6057V19.3897C11.176 19.3417 11.192 19.2697 11.224 19.1737C11.176 19.1577 11.152 19.1097 11.152 19.0297C11.168 18.9657 11.168 18.9097 11.152 18.8617C11.152 18.7337 11.176 18.6217 11.224 18.5257C11.256 18.4137 11.248 18.3177 11.2 18.2377C11.2 18.2057 11.2 18.1657 11.2 18.1177C11.2 18.0697 11.192 18.0057 11.176 17.9257C11.144 17.8297 11.168 17.7417 11.248 17.6617C11.2 17.6297 11.184 17.5817 11.2 17.5177C11.216 17.4537 11.24 17.4057 11.272 17.3737C11.208 17.2777 11.192 17.1977 11.224 17.1337C11.192 16.8777 11.184 16.6457 11.2 16.4377C11.216 16.2137 11.24 16.0057 11.272 15.8137C11.272 15.7657 11.264 15.7177 11.248 15.6697C11.248 15.6217 11.256 15.5817 11.272 15.5497C11.272 15.3417 11.28 15.2297 11.296 15.2137C11.28 15.0857 11.288 14.9737 11.32 14.8777C11.352 14.7657 11.384 14.6617 11.416 14.5657C11.448 14.4857 11.48 14.4057 11.512 14.3257C11.544 14.2297 11.552 14.1177 11.536 13.9897C11.504 13.9577 11.472 13.8777 11.44 13.7497C11.408 13.5577 11.352 13.4057 11.272 13.2937C11.208 13.2297 11.168 13.1817 11.152 13.1497C11.152 13.0697 11.128 13.0217 11.08 13.0057C11.016 12.9097 10.96 12.8297 10.912 12.7657C10.896 12.7337 10.88 12.7097 10.864 12.6937C10.784 12.5337 10.704 12.4057 10.624 12.3097C10.544 12.2137 10.44 12.1017 10.312 11.9737C10.2 11.9737 10.056 11.9897 9.88 12.0217C9.72 12.0377 9.6 12.0857 9.52 12.1657L9.064 12.5497C8.968 12.6297 8.88 12.7017 8.8 12.7657C8.72 12.8137 8.64 12.8697 8.56 12.9337C8.528 12.9817 8.496 13.0297 8.464 13.0777C8.432 13.1097 8.392 13.1417 8.344 13.1737C8.312 13.2377 8.256 13.3097 8.176 13.3897C8.096 13.4697 8.048 13.5497 8.032 13.6297C7.92 13.8057 7.848 13.9657 7.816 14.1097C7.8 14.2377 7.776 14.3817 7.744 14.5417C7.744 14.8457 7.704 15.1017 7.624 15.3097C7.592 15.4057 7.568 15.5097 7.552 15.6217C7.552 15.7337 7.544 15.8457 7.528 15.9577C7.608 16.1817 7.608 16.3737 7.528 16.5337C7.48 16.7257 7.464 16.8617 7.48 16.9417C7.448 17.2137 7.424 17.4777 7.408 17.7337C7.392 17.9737 7.416 18.2217 7.48 18.4777C7.512 18.5577 7.528 18.6457 7.528 18.7417C7.544 18.8217 7.56 18.9017 7.576 18.9817C7.608 19.0777 7.608 19.1817 7.576 19.2937C7.528 19.5337 7.536 19.7337 7.6 19.8937C7.6 19.9257 7.6 19.9657 7.6 20.0137C7.616 20.0617 7.616 20.1097 7.6 20.1577C7.664 20.2697 7.704 20.3817 7.72 20.4937C7.752 20.5897 7.776 20.6857 7.792 20.7817C7.792 21.0217 7.824 21.2297 7.888 21.4057C7.904 21.5017 7.944 21.5897 8.008 21.6697C8.008 21.7337 8.008 21.8057 8.008 21.8857C8.024 21.9657 8.04 22.0377 8.056 22.1017C8.088 22.1497 8.088 22.2137 8.056 22.2937C8.024 22.4537 7.952 22.5897 7.84 22.7017C7.792 22.8457 7.664 23.0297 7.456 23.2537C7.264 23.4617 7.088 23.5657 6.928 23.5657L6.784 23.6857C6.72 23.7497 6.648 23.7817 6.568 23.7817C6.52 23.7817 6.456 23.7577 6.376 23.7097C6.2 23.6937 6.064 23.6857 5.968 23.6857C5.872 23.6697 5.784 23.6617 5.704 23.6617C5.56 23.6617 5.432 23.6217 5.32 23.5417C5.288 23.5097 5.272 23.4777 5.272 23.4457C5.272 23.3977 5.288 23.3577 5.32 23.3257C5.288 23.2457 5.264 23.1737 5.248 23.1097C5.248 23.0297 5.24 22.9657 5.224 22.9177C5.192 22.7897 5.184 22.7177 5.2 22.7017C5.216 22.5897 5.208 22.4857 5.176 22.3897L5.104 22.1497C5.12 22.0857 5.12 22.0057 5.104 21.9097C5.072 21.7337 5.088 21.5897 5.152 21.4777C5.2 21.3657 5.184 21.2697 5.104 21.1897C4.96 21.0137 4.888 20.9257 4.888 20.9257C4.776 20.6377 4.752 20.4537 4.816 20.3737C4.864 20.2457 4.888 20.1097 4.888 19.9657L4.96 19.8217C4.96 19.6937 5.008 19.5817 5.104 19.4857C5.136 19.3097 5.168 19.1897 5.2 19.1257C5.184 18.9977 5.184 18.9017 5.2 18.8377C5.216 18.7577 5.232 18.6937 5.248 18.6457L5.32 18.2617C5.352 18.1977 5.384 18.0857 5.416 17.9257V17.7097C5.432 17.6137 5.44 17.5417 5.44 17.4937C5.44 17.4297 5.448 17.3737 5.464 17.3257C5.464 17.2137 5.488 17.1337 5.536 17.0857L5.608 16.4617L5.656 16.2937C5.64 16.0217 5.64 15.8297 5.656 15.7177C5.672 15.6217 5.664 15.5177 5.632 15.4057C5.616 15.3097 5.616 15.1977 5.632 15.0697C5.664 14.9577 5.664 14.8377 5.632 14.7097C5.616 14.5817 5.592 14.4777 5.56 14.3977C5.56 14.3497 5.552 14.3097 5.536 14.2777C5.536 14.2297 5.544 14.1817 5.56 14.1337L5.416 13.5097C5.4 13.3017 5.424 13.1417 5.488 13.0297C5.456 12.8697 5.48 12.7657 5.56 12.7177C5.56 12.6697 5.56 12.5977 5.56 12.5017C5.56 12.3897 5.576 12.3097 5.608 12.2617C5.592 12.1337 5.592 12.0137 5.608 11.9017C5.688 11.6617 5.696 11.4617 5.632 11.3017C5.616 11.2057 5.616 11.1177 5.632 11.0377C5.616 11.0057 5.6 10.9817 5.584 10.9657C5.568 10.9337 5.56 10.9017 5.56 10.8697C5.512 10.8217 5.472 10.7657 5.44 10.7017L5.344 10.6297C5.264 10.5497 5.208 10.4857 5.176 10.4377C5.144 10.3897 5.112 10.3497 5.08 10.3177L4.912 10.0777C4.816 9.90172 4.768 9.68572 4.768 9.42972C4.832 9.31772 4.88 9.21372 4.912 9.11772C4.944 9.02172 4.976 8.93372 5.008 8.85372C5.04 8.69372 5.096 8.57372 5.176 8.49372C5.192 8.41372 5.248 8.33372 5.344 8.25372C5.456 8.15772 5.56 8.09372 5.656 8.06172C5.72 8.04572 5.784 8.06972 5.848 8.13372C5.896 8.13372 5.944 8.14172 5.992 8.15772C6.04 8.15772 6.08 8.15772 6.112 8.15772C6.192 8.15772 6.28 8.14172 6.376 8.10972C6.504 8.04572 6.648 8.01372 6.808 8.01372C7.032 8.01372 7.208 8.10172 7.336 8.27772C7.4 8.30972 7.448 8.36572 7.48 8.44572C7.512 8.49372 7.536 8.54172 7.552 8.58972C7.584 8.62172 7.616 8.65372 7.648 8.68572C7.728 8.86172 7.792 9.06172 7.84 9.28572C7.904 9.49372 7.92 9.69372 7.888 9.88572C7.968 9.98172 7.984 10.0777 7.936 10.1737C7.904 10.2377 7.888 10.2937 7.888 10.3417C7.888 10.3897 7.88 10.4377 7.864 10.4857L7.84 10.8457V11.0857C7.84 11.1177 7.84 11.1657 7.84 11.2297C7.84 11.2777 7.832 11.3257 7.816 11.3737C7.976 11.2777 8.104 11.1737 8.2 11.0617C8.312 10.9337 8.408 10.8057 8.488 10.6777C8.568 10.5977 8.616 10.5337 8.632 10.4857C8.648 10.4537 8.688 10.4057 8.752 10.3417C8.784 10.2937 8.808 10.2457 8.824 10.1977C8.856 10.1497 8.904 10.1097 8.968 10.0777C9.016 10.0457 9.088 9.96572 9.184 9.83772C9.296 9.75772 9.376 9.66972 9.424 9.57372C9.504 9.46172 9.584 9.39772 9.664 9.38172ZM18.544 17.7817C18.576 17.7657 18.64 17.7577 18.736 17.7577C18.864 17.7577 18.984 17.8057 19.096 17.9017C19.208 17.9817 19.232 18.1097 19.168 18.2857C19.104 18.3657 19.064 18.4297 19.048 18.4777C19.032 18.5257 19.016 18.5657 19 18.5977C18.888 18.6297 18.808 18.6457 18.76 18.6457C18.712 18.6297 18.664 18.6217 18.616 18.6217C18.536 18.6057 18.496 18.5417 18.496 18.4297C18.48 18.3977 18.472 18.3657 18.472 18.3337C18.472 18.2857 18.464 18.2457 18.448 18.2137C18.416 18.1337 18.432 18.0857 18.496 18.0697C18.464 18.0217 18.456 17.9737 18.472 17.9257C18.488 17.8777 18.512 17.8297 18.544 17.7817ZM8.344 8.82972L8.32 8.70972C8.256 8.70972 8.224 8.65372 8.224 8.54172C8.224 8.44572 8.248 8.38972 8.296 8.37372C8.344 8.19772 8.456 8.10972 8.632 8.10972C8.744 8.10972 8.832 8.14172 8.896 8.20572C9.04 8.38172 9.064 8.58172 8.968 8.80572C8.904 8.94972 8.808 9.02172 8.68 9.02172C8.632 9.02172 8.592 9.00572 8.56 8.97372C8.528 8.95772 8.488 8.94172 8.44 8.92572C8.408 8.89372 8.376 8.86172 8.344 8.82972ZM9.808 8.70972C9.76 8.75772 9.696 8.78172 9.616 8.78172C9.504 8.78172 9.424 8.73372 9.376 8.63772C9.376 8.41372 9.456 8.30172 9.616 8.30172C9.696 8.33372 9.752 8.38172 9.784 8.44572C9.832 8.50972 9.84 8.59772 9.808 8.70972ZM10.192 12.8377C10.336 12.9177 10.4 13.0537 10.384 13.2457C10.384 13.4377 10.312 13.5737 10.168 13.6537C9.992 13.6377 9.856 13.5897 9.76 13.5097C9.68 13.4297 9.6 13.3417 9.52 13.2457C9.536 12.9417 9.712 12.7897 10.048 12.7897C10.096 12.7897 10.144 12.8057 10.192 12.8377ZM15.904 13.7257L15.76 13.7977C15.712 13.8137 15.656 13.8217 15.592 13.8217C15.432 13.8217 15.32 13.7577 15.256 13.6297C15.192 13.5017 15.176 13.3497 15.208 13.1737C15.24 12.9977 15.288 12.8937 15.352 12.8617C15.4 12.8457 15.44 12.7897 15.472 12.6937C15.568 12.6617 15.632 12.6457 15.664 12.6457C15.808 12.6457 15.92 12.7017 16 12.8137C16.08 12.9257 16.104 13.0697 16.072 13.2457C15.992 13.4537 15.952 13.5817 15.952 13.6297L15.904 13.7257ZM24.9574 18.8377C24.9254 18.8537 24.8774 18.8777 24.8134 18.9097C24.7654 18.9417 24.7094 18.9577 24.6454 18.9577C24.5174 18.9577 24.4294 18.8857 24.3814 18.7417L24.3334 18.5737C24.3174 18.4457 24.3014 18.3497 24.2854 18.2857C24.2694 18.2217 24.2534 18.1737 24.2374 18.1417C24.2054 17.9657 24.1894 17.8457 24.1894 17.7817C24.2054 17.7177 24.2214 17.6697 24.2374 17.6377C24.2534 17.5897 24.2854 17.5417 24.3334 17.4937C24.3974 17.4777 24.4854 17.4697 24.5974 17.4697H24.7414C24.7894 17.5017 24.8614 17.5817 24.9574 17.7097C25.0534 17.9337 25.0934 18.1017 25.0774 18.2137L25.0054 18.5257C24.9734 18.6057 24.9574 18.6617 24.9574 18.6937C24.9574 18.7097 24.9574 18.7577 24.9574 18.8377ZM26.7334 21.1897C26.7654 20.9017 26.8294 20.6617 26.9254 20.4697C27.0214 20.2777 27.1334 20.1657 27.2614 20.1337C27.3414 20.1657 27.4054 20.2057 27.4534 20.2537C27.5014 20.3017 27.5494 20.3657 27.5974 20.4457C27.5974 20.5257 27.6054 20.5817 27.6214 20.6137C27.6694 20.6617 27.6934 20.7177 27.6934 20.7817C27.6934 20.9097 27.6534 21.0297 27.5734 21.1417C27.4934 21.2377 27.4134 21.3017 27.3334 21.3337L26.9974 21.4777C26.9494 21.4777 26.9014 21.4777 26.8534 21.4777C26.8054 21.4617 26.7814 21.4217 26.7814 21.3577C26.7814 21.3417 26.7654 21.2857 26.7334 21.1897ZM27.2374 19.4617C27.2854 19.4297 27.3254 19.3737 27.3574 19.2937C27.3894 19.2617 27.4134 19.2457 27.4294 19.2457C27.4614 19.2457 27.4774 19.2537 27.4774 19.2697C27.4934 19.2697 27.5094 19.2697 27.5254 19.2697C27.7494 19.2697 27.8614 19.3177 27.8614 19.4137C27.8774 19.4937 27.8774 19.5897 27.8614 19.7017C27.8134 19.7977 27.7254 19.8457 27.5974 19.8457C27.4854 19.8457 27.4054 19.8297 27.3574 19.7977L27.3094 19.6057L27.2374 19.4617ZM19.5574 12.6697C19.6374 12.6857 19.7094 12.7177 19.7734 12.7657C19.8374 12.8137 19.9014 12.8617 19.9654 12.9097C19.9974 13.0697 20.0294 13.1817 20.0614 13.2457C20.0774 13.3577 20.0534 13.4617 19.9894 13.5577C19.9414 13.6057 19.8534 13.6297 19.7254 13.6297H19.6774C19.5334 13.5337 19.4454 13.4537 19.4134 13.3897C19.3654 13.3257 19.3494 13.2537 19.3654 13.1737C19.3974 13.0457 19.3974 12.9337 19.3654 12.8377L19.5574 12.6697ZM20.2294 14.3257C20.1974 14.4217 20.1894 14.4937 20.2054 14.5417C20.2214 14.6377 20.1734 14.6857 20.0614 14.6857C19.9814 14.6857 19.9334 14.6537 19.9174 14.5897C19.8854 14.5257 19.8374 14.4857 19.7734 14.4697C19.7574 14.3897 19.7654 14.3337 19.7974 14.3017C19.8454 14.2537 19.9094 14.2137 19.9894 14.1817C20.0214 14.2137 20.0454 14.2377 20.0614 14.2537C20.0934 14.2697 20.1494 14.2937 20.2294 14.3257ZM21.2134 17.8057H21.2614C21.1974 17.6937 21.1814 17.6137 21.2134 17.5657V17.4457C21.2134 17.3177 21.2054 17.2297 21.1894 17.1817C21.1894 17.1177 21.1814 17.0697 21.1654 17.0377C21.1974 16.9737 21.2134 16.9097 21.2134 16.8457C21.1974 16.7977 21.2054 16.7417 21.2374 16.6777C21.2374 16.5817 21.2294 16.5097 21.2134 16.4617V16.2937C21.1654 16.2137 21.1174 16.1337 21.0694 16.0537C21.0374 15.9577 21.0374 15.8697 21.0694 15.7897C21.0534 15.7097 21.0374 15.6537 21.0214 15.6217C21.0214 15.5737 21.0214 15.5337 21.0214 15.5017C21.0214 15.4697 21.0134 15.4137 20.9974 15.3337C20.9974 15.2537 20.9734 15.1817 20.9254 15.1177C20.8934 15.0537 20.8934 14.9977 20.9254 14.9497C20.8934 14.6937 20.8614 14.5097 20.8294 14.3977L20.7574 14.0137C20.6934 13.9657 20.6614 13.8857 20.6614 13.7737C20.6614 13.6617 20.6534 13.5897 20.6374 13.5577L20.4934 13.1497C20.4614 13.1017 20.4374 13.0617 20.4214 13.0297C20.4054 12.9817 20.3974 12.9337 20.3974 12.8857C20.3334 12.6937 20.2854 12.5577 20.2534 12.4777C20.2374 12.3817 20.2134 12.2937 20.1814 12.2137L20.1094 11.9497C20.0614 11.8697 20.0214 11.7817 19.9894 11.6857C19.9734 11.5737 19.9574 11.4777 19.9414 11.3977L19.8694 11.1337C19.9174 11.0697 19.9254 11.0057 19.8934 10.9417C19.8614 10.8777 19.8534 10.8057 19.8694 10.7257C19.8854 10.6457 19.8934 10.5817 19.8934 10.5337C19.8934 10.4697 19.8934 10.4217 19.8934 10.3897C19.8934 10.3097 19.9174 10.2217 19.9654 10.1257C20.0294 10.0297 20.0694 9.97372 20.0854 9.95772C20.1174 9.92572 20.1414 9.90172 20.1574 9.88572C20.1734 9.86972 20.1974 9.84572 20.2294 9.81372L20.4454 9.62172C20.4614 9.58972 20.5094 9.55772 20.5894 9.52572C20.8134 9.44572 21.0054 9.37372 21.1654 9.30972C21.3254 9.24572 21.4774 9.17372 21.6214 9.09372C21.6854 9.06172 21.7494 9.04572 21.8134 9.04572C21.8934 9.04572 21.9654 9.04572 22.0294 9.04572C22.3014 9.04572 22.4774 9.10972 22.5574 9.23772C22.6534 9.23772 22.7094 9.24572 22.7254 9.26172C22.8374 9.30972 22.9014 9.34972 22.9174 9.38172C22.9494 9.41372 22.9654 9.44572 22.9654 9.47772C22.9654 9.63772 23.0054 9.78972 23.0854 9.93372C23.1014 9.99772 23.1174 10.0537 23.1334 10.1017C23.1494 10.1337 23.1654 10.1737 23.1814 10.2217C23.1814 10.3017 23.1974 10.4217 23.2294 10.5817L23.3014 10.9897C23.3014 11.0377 23.3174 11.1097 23.3494 11.2057C23.3654 11.2377 23.3734 11.2777 23.3734 11.3257C23.3734 11.3577 23.3734 11.3897 23.3734 11.4217C23.3734 11.7897 23.2934 12.1337 23.1334 12.4537C23.0854 12.6937 23.0854 12.9337 23.1334 13.1737C23.1654 13.3177 23.1894 13.4697 23.2054 13.6297C23.2374 13.7737 23.2534 13.9177 23.2534 14.0617C23.3334 14.2057 23.3574 14.3337 23.3254 14.4457C23.3094 14.5097 23.3014 14.6217 23.3014 14.7817C23.3014 14.8457 23.3014 14.9097 23.3014 14.9737C23.3014 15.0377 23.2934 15.1097 23.2774 15.1897C23.2454 15.5097 23.2694 15.7897 23.3494 16.0297C23.3654 16.0937 23.3734 16.1577 23.3734 16.2217C23.3734 16.2697 23.3814 16.3257 23.3974 16.3897C23.3494 16.5657 23.3654 16.7417 23.4454 16.9177C23.5254 17.1097 23.5574 17.2777 23.5414 17.4217C23.6214 17.5497 23.6694 17.7017 23.6854 17.8777C23.7014 18.0537 23.6934 18.2377 23.6614 18.4297C23.6774 18.5417 23.7014 18.6457 23.7334 18.7417C23.7814 18.8377 23.8294 18.9257 23.8774 19.0057C23.9894 19.1657 24.0454 19.3577 24.0454 19.5817L24.1894 20.0137C24.1894 20.0937 24.1974 20.1737 24.2134 20.2537C24.2294 20.3177 24.2534 20.3897 24.2854 20.4697C24.2854 20.5657 24.3014 20.6457 24.3334 20.7097L24.4774 20.9257C24.4454 21.0857 24.4854 21.1977 24.5974 21.2617C24.6774 21.2617 24.7254 21.2377 24.7414 21.1897C24.8214 20.9337 24.8694 20.7657 24.8854 20.6857C24.9174 20.5897 24.9494 20.5177 24.9814 20.4697C25.0294 20.3737 25.0774 20.2537 25.1254 20.1097C25.1094 19.9177 25.1494 19.7977 25.2454 19.7497C25.3254 19.7177 25.3894 19.6537 25.4374 19.5577C25.5014 19.5417 25.5494 19.5017 25.5814 19.4377C25.6134 19.3577 25.6534 19.3097 25.7014 19.2937V19.0297C25.7014 18.9817 25.6934 18.9417 25.6774 18.9097C25.6774 18.8617 25.6854 18.8057 25.7014 18.7417C25.6854 18.6777 25.6774 18.6297 25.6774 18.5977C25.6934 18.5497 25.7014 18.5097 25.7014 18.4777V18.3097C25.6854 18.2617 25.6934 18.1897 25.7254 18.0937C25.7894 18.0457 25.8374 17.9737 25.8694 17.8777C25.9014 17.7977 25.9334 17.7417 25.9654 17.7097C25.9974 17.6297 26.0294 17.5097 26.0614 17.3497C26.0614 17.2217 26.0854 17.1097 26.1334 17.0137C26.1974 16.9337 26.2294 16.8617 26.2294 16.7977C26.2454 16.7497 26.2614 16.6937 26.2774 16.6297C26.3094 16.5657 26.3414 16.5097 26.3734 16.4617C26.3894 16.2857 26.3974 16.1657 26.3974 16.1017C26.4134 16.0217 26.4134 15.9657 26.3974 15.9337C26.3814 15.9017 26.3734 15.8537 26.3734 15.7897C26.3894 15.7097 26.4134 15.6457 26.4454 15.5977L26.5174 15.4297C26.5014 15.3337 26.5174 15.2297 26.5654 15.1177C26.6134 15.0697 26.6534 14.9737 26.6854 14.8297C26.7654 14.6697 26.8214 14.5577 26.8534 14.4937C26.8854 14.4137 26.9174 14.3657 26.9494 14.3497C26.9334 14.2697 26.9414 14.1897 26.9734 14.1097L27.0454 13.9177C27.1414 13.7737 27.1974 13.6777 27.2134 13.6297C27.2454 13.5657 27.2694 13.5177 27.2854 13.4857C27.2854 13.3257 27.2854 13.2137 27.2854 13.1497C27.3014 13.0857 27.3174 13.0377 27.3334 13.0057C27.3654 12.9577 27.3734 12.9017 27.3574 12.8377C27.3254 12.6297 27.3414 12.4537 27.4054 12.3097C27.4534 12.1497 27.4374 11.9897 27.3574 11.8297C27.3414 11.6697 27.3334 11.5657 27.3334 11.5177C27.3334 11.4537 27.3494 11.4057 27.3814 11.3737C27.4134 11.2777 27.4214 11.2137 27.4054 11.1817C27.4374 11.0217 27.4534 10.9017 27.4534 10.8217C27.4694 10.7257 27.4774 10.6377 27.4774 10.5577C27.4774 10.4617 27.4854 10.3897 27.5014 10.3417C27.5334 10.1817 27.5414 10.0697 27.5254 10.0057C27.5094 9.94172 27.5094 9.87772 27.5254 9.81372C27.5414 9.68572 27.5894 9.54972 27.6694 9.40572C27.7174 9.35772 27.7414 9.30172 27.7414 9.23772L27.9814 8.90172C28.0614 8.86972 28.1254 8.83772 28.1734 8.80572C28.2374 8.75772 28.2854 8.71772 28.3174 8.68572C28.3814 8.65372 28.4214 8.63772 28.4374 8.63772C28.4534 8.63772 28.4934 8.65372 28.5574 8.68572H28.7494H28.9414C29.0694 8.73372 29.2134 8.75772 29.3734 8.75772C29.4534 8.78972 29.5174 8.82172 29.5654 8.85372C29.6134 8.88572 29.6534 8.94172 29.6854 9.02172C29.8934 9.13372 30.0054 9.30172 30.0214 9.52572C30.0374 9.74972 30.0454 9.96572 30.0454 10.1737C30.0134 10.3017 29.9654 10.4137 29.9014 10.5097C29.7894 10.7497 29.7254 10.9337 29.7094 11.0617C29.6774 11.1577 29.6374 11.2297 29.5894 11.2777C29.5734 11.4057 29.5494 11.5337 29.5174 11.6617C29.4854 11.7897 29.4294 11.8937 29.3494 11.9737C29.1894 12.1977 29.0854 12.4217 29.0374 12.6457C28.9094 12.7737 28.8374 12.9177 28.8214 13.0777C28.7574 13.2697 28.6854 13.4377 28.6054 13.5817C28.5734 13.6777 28.5334 13.7977 28.4854 13.9417C28.4374 14.0857 28.4134 14.2057 28.4134 14.3017C28.2374 14.6377 28.1254 14.8537 28.0774 14.9497C28.0294 15.0457 28.0054 15.1257 28.0054 15.1897C27.9734 15.2697 27.9334 15.3497 27.8854 15.4297C27.8534 15.5097 27.8214 15.6057 27.7894 15.7177C27.7414 15.8137 27.7014 15.9177 27.6694 16.0297C27.6534 16.1257 27.6294 16.2137 27.5974 16.2937C27.5974 16.3577 27.5814 16.4137 27.5494 16.4617C27.5174 16.4937 27.4854 16.5337 27.4534 16.5817C27.4534 16.6297 27.4534 16.6777 27.4534 16.7257C27.4374 16.7577 27.4294 16.7817 27.4294 16.7977L27.3574 17.2537C27.3414 17.3497 27.3254 17.4457 27.3094 17.5417C27.3094 17.6217 27.3014 17.7017 27.2854 17.7817C27.2534 17.8457 27.2374 17.9177 27.2374 17.9977C27.2374 18.0777 27.2214 18.1657 27.1894 18.2617C27.1574 18.3417 27.1174 18.4377 27.0694 18.5497L26.9974 18.8857C26.9654 19.1737 26.8694 19.3977 26.7094 19.5577C26.5974 19.7177 26.5334 19.8617 26.5174 19.9897C26.4854 20.1657 26.4374 20.3257 26.3734 20.4697C26.3734 20.5497 26.3654 20.6217 26.3494 20.6857C26.3494 20.7497 26.3334 20.8057 26.3014 20.8537C26.2534 20.9817 26.2134 21.1097 26.1814 21.2377C26.1494 21.3657 26.1414 21.5177 26.1574 21.6937C26.1574 21.7737 26.1494 21.8777 26.1334 22.0057C26.1174 22.1337 26.0934 22.2617 26.0614 22.3897C26.0454 22.5177 26.0214 22.6457 25.9894 22.7737C25.9574 22.8857 25.9254 22.9657 25.8934 23.0137C25.8614 23.1417 25.8294 23.2617 25.7974 23.3737C25.7654 23.4857 25.7094 23.5737 25.6294 23.6377C25.5974 23.6697 25.5734 23.7097 25.5574 23.7577C25.5574 23.7897 25.5494 23.8217 25.5334 23.8537C25.5174 23.9177 25.4694 23.9657 25.3894 23.9977C25.3734 24.0777 25.3414 24.1417 25.2934 24.1897C25.2294 24.2697 25.1814 24.3417 25.1494 24.4057C25.0534 24.4377 24.9974 24.4617 24.9814 24.4777C24.9654 24.4937 24.9254 24.5017 24.8614 24.5017H24.8134C24.6054 24.6457 24.4294 24.7177 24.2854 24.7177C24.2374 24.7177 24.1654 24.7017 24.0694 24.6697C23.9574 24.6217 23.9014 24.5977 23.9014 24.5977C23.7574 24.5977 23.6774 24.5817 23.6614 24.5497C23.6614 24.5017 23.6134 24.4777 23.5174 24.4777C23.4374 24.3977 23.3894 24.3257 23.3734 24.2617C23.3574 24.2137 23.3334 24.1497 23.3014 24.0697C23.2694 23.9897 23.2374 23.9177 23.2054 23.8537C23.1894 23.7897 23.1574 23.7417 23.1094 23.7097C23.0614 23.5657 23.0294 23.4857 23.0134 23.4697C22.9494 23.3417 22.9014 23.2617 22.8694 23.2297C22.8534 23.1977 22.8294 23.1417 22.7974 23.0617C22.6854 22.9177 22.6134 22.8377 22.5814 22.8217C22.5494 22.7417 22.5254 22.6617 22.5094 22.5817C22.4934 22.5017 22.4774 22.4297 22.4614 22.3657C22.4454 22.3177 22.4374 22.2697 22.4374 22.2217C22.4374 22.1577 22.4294 22.0937 22.4134 22.0297C22.3014 21.9017 22.2454 21.8457 22.2454 21.8617C22.1974 21.7977 22.1494 21.7417 22.1014 21.6937C22.0374 21.6617 22.0214 21.6057 22.0534 21.5257C21.9734 21.4137 21.9254 21.2857 21.9094 21.1417C21.8934 20.9977 21.8774 20.8377 21.8614 20.6617L21.8374 20.4457C21.8214 20.3497 21.8214 20.2537 21.8374 20.1577C21.8374 20.1097 21.8294 20.0617 21.8134 20.0137C21.8134 19.9657 21.8054 19.9097 21.7894 19.8457C21.7574 19.7177 21.7414 19.5977 21.7414 19.4857C21.7734 19.3257 21.7494 19.1737 21.6694 19.0297C21.6694 18.8857 21.6614 18.7897 21.6454 18.7417C21.5814 18.6617 21.5414 18.5737 21.5254 18.4777C21.5094 18.3817 21.4614 18.2937 21.3814 18.2137C21.3494 18.1657 21.3174 18.0937 21.2854 17.9977L21.2134 17.8057Z" fill="white"/>
</svg>
