<svg width="128" height="128" viewBox="0 0 128 128" fill="none" xmlns="http://www.w3.org/2000/svg">
<g clip-path="url(#clip0_242_160)">
<path d="M60.8013 69.1392V52.4975L46.3906 44.1824L31.98 52.4975V69.1392L46.3906 77.4601L60.8013 69.1392Z" fill="#3B8739"/>
<path d="M117.55 66.6123L126.941 72.0362L117.55 77.4601L103.14 69.1392V52.5032L117.55 44.1824L126.281 49.225C127.169 52.9699 127.709 56.7889 127.909 60.6363L122.57 63.721V57.9271L117.55 55.0302L112.53 57.9271V63.721L117.55 66.6123Z" fill="#333333"/>
<path d="M120.351 62.4348V59.2021L117.556 57.5857L114.756 59.2021V62.4348L117.556 64.0511L120.351 62.4348Z" fill="#66A060"/>
<path d="M25.1731 52.5032V74.4436L15.5603 68.9628V57.7109L10.7625 54.9392L5.96461 57.7109V68.9571L0.506536 72.0703C0.170743 69.3954 0 66.6976 0 63.9999C0 58.9914 0.574833 54.1139 1.66189 49.4356L10.7625 44.1824L25.1731 52.5032Z" fill="#333333"/>
<path d="M46.385 44.1768L60.7956 69.1336L46.385 77.4545L31.98 52.4976L46.385 44.1768Z" fill="#6DA75D"/>
<path d="M31.98 69.1393L36.9258 61.0688L31.98 52.4976V69.1393Z" fill="#55A344"/>
<path d="M55.992 60.8184L60.7956 52.4975L46.3906 44.1824L55.992 60.8184Z" fill="#639D57"/>
<path d="M86.6406 24.8943V46.9713L81.8086 44.1825L67.3979 52.5034V69.1451L81.8086 77.4659L96.2193 69.1451V30.0223L86.6406 24.8943ZM86.6122 63.5902L81.8086 66.362L77.0051 63.5902V58.0468L81.8086 55.2751L86.6122 58.0468V63.5902Z" fill="#333333"/>
<path d="M70.5393 89.6798C70.5393 89.6798 70.2547 87.2495 67.6537 87.2495C65.0528 87.2495 63.2714 87.591 63.2714 89.0309C63.2714 90.4709 68.331 90.4709 70.2547 91.04C72.1784 91.6035 73.8745 93.0775 73.0264 95.6785C72.1784 98.2795 69.5774 98.5641 65.5593 98.5641C61.5412 98.5641 60.6362 95.2289 60.6362 93.9256H62.9014C62.9014 93.9256 62.6168 95.9631 65.2747 96.2989C67.9326 96.6347 70.4767 96.8282 70.8182 94.7736C71.2735 92.0588 62.2184 93.4133 61.4273 90.7554C60.7558 88.5073 61.1428 85.5535 65.6674 85.0982C70.1921 84.6428 72.6793 86.6462 72.6793 89.6228L70.5393 89.6798Z" fill="#66A060"/>
<path d="M48.6787 100.283L53.6815 103.168C56.1971 104.62 59.3387 102.804 59.3387 99.9016V85.5251H57.3012V99.3324C57.3012 100.915 55.5881 101.911 54.2108 101.114L50.7219 99.0991V84.364L63.4821 76.9993L76.2422 84.364V99.0991L63.4821 106.464L59.8054 104.341L57.4037 105.308L63.4821 108.814L78.2798 100.272V83.1859L63.4821 74.6431L48.6844 83.1859L48.6787 100.283Z" fill="#66A060"/>
</g>
<defs>
<clipPath id="clip0_242_160">
<rect width="128" height="128" fill="white"/>
</clipPath>
</defs>
</svg>
