<svg width="128" height="128" viewBox="0 0 128 128" fill="none" xmlns="http://www.w3.org/2000/svg">
<path d="M63.9011 74.6259C69.8126 74.6259 74.6049 69.8336 74.6049 63.9221C74.6049 58.0105 69.8126 53.2183 63.9011 53.2183C57.9895 53.2183 53.1973 58.0105 53.1973 63.9221C53.1973 69.8336 57.9895 74.6259 63.9011 74.6259Z" fill="#00D8FF"/>
<path d="M63.9008 42.1609C78.2692 42.1609 91.6189 44.2231 101.682 47.6861C113.808 51.8601 121.265 58.1883 121.265 63.9187C121.265 69.8896 113.363 76.614 100.342 80.9259C90.4976 84.1873 77.5406 85.8923 63.9008 85.8923C49.9144 85.8923 36.6744 84.2934 26.7169 80.8906C14.1207 76.5857 6.5332 69.7764 6.5332 63.9187C6.5332 58.2343 13.6537 51.9556 25.6098 47.7887C35.7122 44.2691 49.3909 42.1609 63.9008 42.1609Z" stroke="#00D8FF" stroke-width="4" stroke-miterlimit="10"/>
<path d="M44.959 53.1053C52.1361 40.6576 60.5937 30.1236 68.6234 23.1375C78.2978 14.7187 87.5054 11.422 92.4682 14.2837C97.6397 17.2656 99.518 27.4706 96.7483 40.9088C94.6542 51.0678 89.6596 63.1406 82.8432 74.9586C75.8571 87.0738 67.8558 97.7458 59.9358 104.672C49.9147 113.434 40.2226 116.603 35.1501 113.678C30.2262 110.837 28.3444 101.534 30.7037 89.0936C32.6988 78.5737 37.7075 65.6733 44.959 53.1053Z" stroke="#00D8FF" stroke-width="4" stroke-miterlimit="10"/>
<path d="M44.9766 74.9833C37.7782 62.5463 32.8755 49.9606 30.831 39.515C28.369 26.9294 30.1094 17.3045 35.0687 14.4357C40.2366 11.4432 50.0137 14.9133 60.2718 24.0218C68.029 30.9088 75.9914 41.266 82.8255 53.0734C89.8328 65.178 95.0857 77.4382 97.1267 87.7565C99.7124 100.816 97.6184 110.795 92.5494 113.727C87.6291 116.575 78.6302 113.561 69.0301 105.301C60.9226 98.3223 52.2457 87.5407 44.9766 74.9833Z" stroke="#00D8FF" stroke-width="4" stroke-miterlimit="10"/>
</svg>
