<svg width="128" height="77" viewBox="0 0 128 77" fill="none" xmlns="http://www.w3.org/2000/svg">
<g clip-path="url(#clip0_242_138)">
<path d="M64.0001 0C46.9396 0 36.2774 8.52782 32.0119 25.5819C38.4102 17.054 45.874 13.8573 54.4035 15.9885C59.2706 17.2044 62.7489 20.7356 66.6 24.6427C72.8719 31.0074 80.1309 38.3736 95.9882 38.3736C113.047 38.3736 123.711 29.8458 127.975 12.7901C121.578 21.318 114.114 24.5163 105.583 22.3851C100.718 21.1692 97.2394 17.638 93.3882 13.7309C87.1164 7.36625 79.8557 0 64.0001 0ZM32.0119 38.3736C14.9531 38.3736 4.2893 46.9014 0.0253906 63.9571C6.42206 55.4292 13.8859 52.2309 22.4169 54.3637C27.2824 55.5812 30.7608 59.1108 34.6119 63.0163C40.8837 69.381 48.1444 76.7488 64.0001 76.7488C81.0605 76.7488 91.7227 68.221 95.9882 51.1653C89.5899 59.6932 82.1261 62.8915 73.5967 60.7587C68.7296 59.5444 65.2512 56.0116 61.4001 52.1061C55.1282 45.7414 47.8692 38.3736 32.0119 38.3736Z" fill="#06B6D4"/>
</g>
<defs>
<clipPath id="clip0_242_138">
<rect width="128" height="76.7488" fill="white"/>
</clipPath>
</defs>
</svg>
