<svg width="128" height="128" viewBox="0 0 128 128" fill="none" xmlns="http://www.w3.org/2000/svg">
<g clip-path="url(#clip0_242_157)">
<path d="M0 64V0H128V128H0" fill="#007ACC"/>
<path d="M28.064 64.2241V69.4401H44.704V116.8H56.512V69.4401H73.152V64.3201C73.152 61.4401 73.152 59.1041 73.024 59.0401C73.024 58.9441 62.88 58.9121 50.56 58.9121L28.16 59.0081V64.2561L28.064 64.2241ZM102.848 58.8801C106.112 59.6481 108.608 61.1201 110.848 63.4561C112.032 64.7361 113.792 66.9761 113.92 67.5521C113.92 67.7441 108.384 71.4881 105.024 73.5681C104.896 73.6641 104.384 73.1201 103.872 72.2881C102.208 69.9201 100.512 68.8961 97.856 68.7041C94.016 68.4481 91.456 70.4641 91.456 73.8241C91.456 74.8481 91.648 75.4241 92.032 76.2561C92.896 78.0161 94.496 79.0721 99.456 81.2481C108.608 85.1841 112.576 87.7761 114.976 91.4881C117.696 95.6481 118.304 102.176 116.48 107.072C114.432 112.416 109.44 116.032 102.304 117.216C100.064 117.6 94.944 117.536 92.544 117.12C87.424 116.16 82.528 113.6 79.52 110.304C78.336 109.024 76.064 105.6 76.192 105.376L77.408 104.608L82.208 101.824L85.824 99.7121L86.656 100.832C87.712 102.496 90.08 104.736 91.456 105.504C95.616 107.648 101.184 107.36 103.936 104.864C105.12 103.776 105.632 102.624 105.632 101.024C105.632 99.5521 105.408 98.8801 104.672 97.7601C103.648 96.3521 101.6 95.2001 95.84 92.6401C89.216 89.8241 86.4 88.0321 83.776 85.2801C82.272 83.6161 80.896 81.0241 80.256 78.8801C79.776 77.0241 79.616 72.4801 80.064 70.6561C81.44 64.2561 86.272 59.7761 93.184 58.4961C95.424 58.0481 100.704 58.2401 102.912 58.8161L102.848 58.8801Z" fill="white"/>
</g>
<defs>
<clipPath id="clip0_242_157">
<rect width="128" height="128" fill="white"/>
</clipPath>
</defs>
</svg>
