<svg width="683" height="683" viewBox="0 0 683 683" fill="none" xmlns="http://www.w3.org/2000/svg">
  <g clip-path="url(#clip0_2214_951)">
    <path d="M309.334 42.2665C224.667 48.1331 162.934 70.2665 116 111.067C75.3338 146.533 49.0671 200.133 42.6671 260C39.7338 287.2 40.8005 284.267 32.9338 287.867C28.9338 289.733 22.5338 294.533 17.8671 299.2C-2.53288 319.733 -5.59954 349.733 10.1338 374.267L14.6671 381.333L10.1338 388.4C-9.19954 418.533 0.800458 457.467 32.0005 473.867C39.7338 478 41.3338 479.333 41.3338 482.133C41.3338 493.867 50.0005 522.667 58.8005 540.4C80.6671 584.4 118.8 617.2 165.734 632.533C191.467 640.933 185.467 640.667 341.334 640.667C472.4 640.667 484.267 640.533 495.067 638.267C568.667 623.333 624.267 568.4 639.2 495.733C640.4 490 641.334 484 641.334 482.133C641.334 479.333 642.667 478.133 649.067 475.067C653.334 472.933 660.134 467.867 664.667 463.333C685.2 442.8 688.267 413.067 672.534 388.4L668 381.333L672.534 374.267C688.267 349.6 685.2 319.867 664.667 299.333C660.267 294.8 653.6 289.733 649.734 288C641.867 284.4 642.934 287.2 640 260C625.2 120.133 514.134 39.8665 338 41.5998C325.6 41.7331 312.667 41.9998 309.334 42.2665ZM378 82.6665C442.534 87.8665 492.134 104.133 529.334 132.133C549.467 147.333 568.8 170.8 580.534 194.4C590.534 214.4 599.334 246.933 600.934 270.267L601.734 281.333H341.334H80.9338L81.7338 270.267C85.0671 222.133 106.4 175.467 139.067 144.533C177.734 107.867 230.934 88.5331 310 82.2665C322.667 81.1998 363.334 81.4665 378 82.6665ZM632 324C638 327.067 642.667 334.667 642.667 341.467C642.667 347.6 637.467 355.867 631.734 358.8C626.934 361.2 618.934 361.333 341.2 361.333H55.7338L50.4005 358.4C36.9338 350.8 36.8005 332.533 50.1338 324.533L55.3338 321.333H341.067C624.8 321.333 626.8 321.333 632 324ZM632 404C638 407.067 642.667 414.667 642.667 421.467C642.667 427.6 637.467 435.867 631.734 438.8C627.334 441.067 623.6 441.333 599.067 441.467C557.867 441.467 548.667 444.8 527.334 466.933C515.734 478.933 511.467 481.333 501.334 481.333C491.467 481.333 487.6 479.067 473.867 465.6C455.467 447.2 442.4 441.333 420.667 441.467C399.734 441.6 384.934 448.533 367.334 466.933C355.734 478.933 351.467 481.333 341.334 481.333C331.467 481.333 327.6 479.067 313.867 465.6C295.467 447.2 282.4 441.333 260.667 441.467C239.734 441.6 224.934 448.533 207.334 466.933C195.467 479.2 191.6 481.333 180.267 481.333C171.2 481.333 165.6 478 152 464.8C131.067 444.267 122.534 441.333 82.1338 441.333C57.2005 441.333 55.3338 441.2 50.4005 438.4C36.9338 430.8 36.8005 412.533 50.1338 404.533L55.3338 401.333H341.067C624.8 401.333 626.8 401.333 632 404ZM111.734 483.333C114.4 484.533 122.4 491.067 129.334 497.867C147.2 515.467 160.667 521.333 182 521.2C202.667 521.067 218.134 513.867 234.267 496.8C245.467 484.8 251.334 481.333 260 481.333C271.6 481.333 275.334 483.333 287.334 495.733C305.2 514.267 319.867 521.2 341.334 521.2C362.534 521.2 377.867 514.133 394.267 496.8C405.467 484.8 411.334 481.333 420 481.333C431.6 481.333 435.334 483.333 447.334 495.733C465.2 514.267 479.867 521.2 501.334 521.2C522.534 521.2 537.867 514.133 554.267 496.8C567.467 482.667 570.534 481.333 587.467 481.333H601.2L600.4 486.267C599.067 495.467 593.067 512.533 587.334 524C569.334 559.733 536.667 585.867 496.267 597.067L483.334 600.667H341.334H199.334L186 596.933C145.467 585.6 112.934 559.467 94.9338 523.333C89.4671 512.4 83.6005 495.333 82.2671 486.267L81.4671 481.333H94.1338C102.534 481.333 108.4 482 111.734 483.333Z" fill="#F4F4F5"/>
    <path d="M291.734 124.133C286.001 127.066 281.334 134.933 281.334 141.333C281.334 148 286.001 155.6 292.001 158.666C294.801 160.133 299.067 161.333 301.334 161.333C311.467 161.333 321.334 151.466 321.334 141.333C321.334 134.666 316.667 127.066 310.667 124C304.134 120.666 298.134 120.666 291.734 124.133Z" fill="#F4F4F5"/>
    <path d="M371.734 164.133C366.001 167.066 361.334 174.933 361.334 181.333C361.334 188 366.001 195.6 372.001 198.666C374.801 200.133 379.067 201.333 381.334 201.333C383.601 201.333 387.867 200.133 390.667 198.666C396.667 195.6 401.334 188 401.334 181.333C401.334 174.666 396.667 167.066 390.667 164C384.134 160.666 378.134 160.666 371.734 164.133Z" fill="#F4F4F5"/>
    <path d="M211.734 204.133C206.001 207.066 201.334 214.933 201.334 221.333C201.334 228 206.001 235.6 212.001 238.666C214.801 240.133 219.067 241.333 221.334 241.333C231.467 241.333 241.334 231.466 241.334 221.333C241.334 214.666 236.667 207.066 230.667 204C224.134 200.666 218.134 200.666 211.734 204.133Z" fill="#F4F4F5"/>
    <path d="M451.734 204.133C446.001 207.066 441.334 214.933 441.334 221.333C441.334 228 446.001 235.6 452.001 238.666C454.801 240.133 459.067 241.333 461.334 241.333C468.001 241.333 475.601 236.666 478.667 230.666C480.134 227.866 481.334 223.6 481.334 221.333C481.334 214.666 476.667 207.066 470.667 204C464.134 200.666 458.134 200.666 451.734 204.133Z" fill="#F4F4F5"/>
  </g>
  <defs>
    <clipPath id="clip0_2214_951">
      <rect width="682.667" height="682.667" fill="white"/>
    </clipPath>
  </defs>
</svg>
